<svg xmlns="http://www.w3.org/2000/svg"><symbol id="superdomes" viewBox="0 0 128 147"><g id="super_domes"><path d="M64-.2l64 36.7v73.3l-64 36.7-64-36.7V36.5L64-.2z"/><path fill="#fff" d="M28.9 100.2a1.1 1.1 0 0 1-1.2-1.2V84.5h-16a1.2 1.2 0 1 1 0-2.4h9.1v-7.9A1.2 1.2 0 0 1 22 73h4.7a38.6 38.6 0 0 1 37.2-29.3c.1-.1.2-.1.5 0A38.5 38.5 0 0 1 101.3 73h4.7a1.2 1.2 0 0 1 1.2 1.2v7.9h9.1a1.2 1.2 0 0 1 0 2.4h-16V99a1.1 1.1 0 0 1-1.2 1.2zm-5.7-24.8v6.7h81.6v-6.7zm38.4-29.1A35.7 35.7 0 0 0 29.3 73h13zM30.1 84.5v13.3h32.7V84.5zm32.7-35.8L45.3 73h17.5zm2.4-2.5V73h33.5a36 36 0 0 0-33.5-26.8zm0 38.3v13.3h5.5V84.5zm7.9 0v13.3h24.8V84.5z"/></g></symbol><symbol id="spacebubbles" viewBox="0 0 128 147"><g id="space_bubbles"><path d="M63.9 0l63.9 36.9v73.7l-63.9 36.9L0 110.6V36.9L63.9 0z"/><path fill="#fff" d="M27.8 103.7l-2.8-4a1.2 1.2 0 0 1 .1-1.5l10.1-11.9h-5a1.2 1.2 0 0 1-1.2-1.2v-8.7a1.2 1.2 0 0 1 1.2-1.2h7a35.8 35.8 0 0 1-1.3-9.2 28.7 28.7 0 0 1 57.3 0 32 32 0 0 1-1.3 9.2h7a1.2 1.2 0 0 1 1.2 1.2v8.7a1.2 1.2 0 0 1-1.2 1.2h-6.2l9.9 11.9a1.2 1.2 0 0 1 0 1.5l-2.7 4a1.4 1.4 0 0 1-1.6.3l-5.8-3H35.2l-5.8 3a1.4 1.4 0 0 1-1.6-.3zm18.4-17.4h-8L27.5 98.9l1.7 2.5 20.5-10.8zm-14.8-8.7v6.3h66.3v-6.3zm8.4-2.4h49.5a28.6 28.6 0 0 0 1.5-9.2 26.3 26.3 0 0 0-52.5 0 23.7 23.7 0 0 0 1.5 9.2zm11.6 17.3l-11.5 6.1h16.5zm-2.1-6.2l10.2 12.3h8.7l10.2-12.3zm27.1 6.2l-5 6.1h16.5zm13.2-6.2h-8l-3.7 4.3 20.6 10.8 1.7-2.3z"/></g></symbol><symbol id="mechastilts" viewBox="0 0 128 147"><g id="mecha-stilts"><path d="M64 .5L128 37v73l-64 36.5L0 110V37L64 .5z"/><path fill="#fff" d="M26.9 100.5a1.2 1.2 0 1 1 0-2.4h6v-7.6h-6a1.2 1.2 0 0 1-1.3-1.2V65.7a1.2 1.2 0 0 1 1.3-1.2h8c.6-17 13.4-26.4 29.1-26.4s28.5 9.4 29.1 26.4h8a1.2 1.2 0 0 1 1.3 1.2v23.6a1.2 1.2 0 0 1-1.3 1.2h-6v7.6h6a1.2 1.2 0 1 1 0 2.4zm1.2-33.6v21.2h71.8V66.9zm7.3 23.6v7.6h7.7v-7.6zm1.9-26h53.4c-.6-15.5-12.5-24-26.7-24s-26.1 8.5-26.7 24zm8.3 26v7.6h12.1v-7.6zm14.5 0v7.6h7.8v-7.6zM93 82.4H63.4a1.2 1.2 0 1 1 0-2.4H93a1.2 1.2 0 0 1 0 2.4zm-22.7 8.1v7.6h12.1v-7.6zm14.6 0v7.6h7.7v-7.6z"/></g></symbol><symbol id="superdomes" viewBox="0 0 128 147"><g id="super_domes"><path d="M64-.2l64 36.7v73.3l-64 36.7-64-36.7V36.5L64-.2z"/><path fill="#fff" d="M28.9 100.2a1.1 1.1 0 0 1-1.2-1.2V84.5h-16a1.2 1.2 0 1 1 0-2.4h9.1v-7.9A1.2 1.2 0 0 1 22 73h4.7a38.6 38.6 0 0 1 37.2-29.3c.1-.1.2-.1.5 0A38.5 38.5 0 0 1 101.3 73h4.7a1.2 1.2 0 0 1 1.2 1.2v7.9h9.1a1.2 1.2 0 0 1 0 2.4h-16V99a1.1 1.1 0 0 1-1.2 1.2zm-5.7-24.8v6.7h81.6v-6.7zm38.4-29.1A35.7 35.7 0 0 0 29.3 73h13zM30.1 84.5v13.3h32.7V84.5zm32.7-35.8L45.3 73h17.5zm2.4-2.5V73h33.5a36 36 0 0 0-33.5-26.8zm0 38.3v13.3h5.5V84.5zm7.9 0v13.3h24.8V84.5z"/></g></symbol><symbol id="superdomes" viewBox="0 0 128 147"><g id="super_domes"><path d="M64-.2l64 36.7v73.3l-64 36.7-64-36.7V36.5L64-.2z"/><path fill="#fff" d="M28.9 100.2a1.1 1.1 0 0 1-1.2-1.2V84.5h-16a1.2 1.2 0 1 1 0-2.4h9.1v-7.9A1.2 1.2 0 0 1 22 73h4.7a38.6 38.6 0 0 1 37.2-29.3c.1-.1.2-.1.5 0A38.5 38.5 0 0 1 101.3 73h4.7a1.2 1.2 0 0 1 1.2 1.2v7.9h9.1a1.2 1.2 0 0 1 0 2.4h-16V99a1.1 1.1 0 0 1-1.2 1.2zm-5.7-24.8v6.7h81.6v-6.7zm38.4-29.1A35.7 35.7 0 0 0 29.3 73h13zM30.1 84.5v13.3h32.7V84.5zm32.7-35.8L45.3 73h17.5zm2.4-2.5V73h33.5a36 36 0 0 0-33.5-26.8zm0 38.3v13.3h5.5V84.5zm7.9 0v13.3h24.8V84.5z"/></g></symbol><symbol id="superdomes" viewBox="0 0 128 147"><g id="super_domes"><path d="M64-.2l64 36.7v73.3l-64 36.7-64-36.7V36.5L64-.2z"/><path fill="#fff" d="M28.9 100.2a1.1 1.1 0 0 1-1.2-1.2V84.5h-16a1.2 1.2 0 1 1 0-2.4h9.1v-7.9A1.2 1.2 0 0 1 22 73h4.7a38.6 38.6 0 0 1 37.2-29.3c.1-.1.2-.1.5 0A38.5 38.5 0 0 1 101.3 73h4.7a1.2 1.2 0 0 1 1.2 1.2v7.9h9.1a1.2 1.2 0 0 1 0 2.4h-16V99a1.1 1.1 0 0 1-1.2 1.2zm-5.7-24.8v6.7h81.6v-6.7zm38.4-29.1A35.7 35.7 0 0 0 29.3 73h13zM30.1 84.5v13.3h32.7V84.5zm32.7-35.8L45.3 73h17.5zm2.4-2.5V73h33.5a36 36 0 0 0-33.5-26.8zm0 38.3v13.3h5.5V84.5zm7.9 0v13.3h24.8V84.5z"/></g></symbol><symbol id="mechastilts" viewBox="0 0 128 147"><g id="mecha-stilts"><path d="M64 .5L128 37v73l-64 36.5L0 110V37L64 .5z"/><path fill="#fff" d="M26.9 100.5a1.2 1.2 0 1 1 0-2.4h6v-7.6h-6a1.2 1.2 0 0 1-1.3-1.2V65.7a1.2 1.2 0 0 1 1.3-1.2h8c.6-17 13.4-26.4 29.1-26.4s28.5 9.4 29.1 26.4h8a1.2 1.2 0 0 1 1.3 1.2v23.6a1.2 1.2 0 0 1-1.3 1.2h-6v7.6h6a1.2 1.2 0 1 1 0 2.4zm1.2-33.6v21.2h71.8V66.9zm7.3 23.6v7.6h7.7v-7.6zm1.9-26h53.4c-.6-15.5-12.5-24-26.7-24s-26.1 8.5-26.7 24zm8.3 26v7.6h12.1v-7.6zm14.5 0v7.6h7.8v-7.6zM93 82.4H63.4a1.2 1.2 0 1 1 0-2.4H93a1.2 1.2 0 0 1 0 2.4zm-22.7 8.1v7.6h12.1v-7.6zm14.6 0v7.6h7.7v-7.6z"/></g></symbol><symbol id="mechastilts" viewBox="0 0 128 147"><g id="mecha-stilts"><path d="M64 .5L128 37v73l-64 36.5L0 110V37L64 .5z"/><path fill="#fff" d="M26.9 100.5a1.2 1.2 0 1 1 0-2.4h6v-7.6h-6a1.2 1.2 0 0 1-1.3-1.2V65.7a1.2 1.2 0 0 1 1.3-1.2h8c.6-17 13.4-26.4 29.1-26.4s28.5 9.4 29.1 26.4h8a1.2 1.2 0 0 1 1.3 1.2v23.6a1.2 1.2 0 0 1-1.3 1.2h-6v7.6h6a1.2 1.2 0 1 1 0 2.4zm1.2-33.6v21.2h71.8V66.9zm7.3 23.6v7.6h7.7v-7.6zm1.9-26h53.4c-.6-15.5-12.5-24-26.7-24s-26.1 8.5-26.7 24zm8.3 26v7.6h12.1v-7.6zm14.5 0v7.6h7.8v-7.6zM93 82.4H63.4a1.2 1.2 0 1 1 0-2.4H93a1.2 1.2 0 0 1 0 2.4zm-22.7 8.1v7.6h12.1v-7.6zm14.6 0v7.6h7.7v-7.6z"/></g></symbol><symbol id="spacebubbles" viewBox="0 0 128 147"><g id="space_bubbles"><path d="M63.9 0l63.9 36.9v73.7l-63.9 36.9L0 110.6V36.9L63.9 0z"/><path fill="#fff" d="M27.8 103.7l-2.8-4a1.2 1.2 0 0 1 .1-1.5l10.1-11.9h-5a1.2 1.2 0 0 1-1.2-1.2v-8.7a1.2 1.2 0 0 1 1.2-1.2h7a35.8 35.8 0 0 1-1.3-9.2 28.7 28.7 0 0 1 57.3 0 32 32 0 0 1-1.3 9.2h7a1.2 1.2 0 0 1 1.2 1.2v8.7a1.2 1.2 0 0 1-1.2 1.2h-6.2l9.9 11.9a1.2 1.2 0 0 1 0 1.5l-2.7 4a1.4 1.4 0 0 1-1.6.3l-5.8-3H35.2l-5.8 3a1.4 1.4 0 0 1-1.6-.3zm18.4-17.4h-8L27.5 98.9l1.7 2.5 20.5-10.8zm-14.8-8.7v6.3h66.3v-6.3zm8.4-2.4h49.5a28.6 28.6 0 0 0 1.5-9.2 26.3 26.3 0 0 0-52.5 0 23.7 23.7 0 0 0 1.5 9.2zm11.6 17.3l-11.5 6.1h16.5zm-2.1-6.2l10.2 12.3h8.7l10.2-12.3zm27.1 6.2l-5 6.1h16.5zm13.2-6.2h-8l-3.7 4.3 20.6 10.8 1.7-2.3z"/></g></symbol></svg>