<svg xmlns="http://www.w3.org/2000/svg"><symbol id="superdomes" viewBox="0 0 220 256"><path d="M110 .4l110 63.9v127.8L110 256 .1 192.1V64.3L110 .4z"/><path fill="#fff" d="M49.8 175.4a1.9 1.9 0 0 1-2.1-2.1v-25.4H20.2a2.2 2.2 0 0 1-2.1-2.1 2.3 2.3 0 0 1 2.1-2.1h15.6v-13.6a1.9 1.9 0 0 1 2.1-2.1H46a66.2 66.2 0 0 1 63.8-51c.2-.2.4-.2.9 0 30.8.2 56.5 22 63.4 51h8.1a2 2 0 0 1 2.1 2.1v13.6h15.6a2.3 2.3 0 0 1 2.1 2.1 2.2 2.2 0 0 1-2.1 2.1h-27.5v25.4a1.9 1.9 0 0 1-2.1 2.1zM40 132.2v11.5h140.1v-11.5zm65.9-50.8c-26.7 1.7-49 21.2-55.5 46.6h22.3zm-54 66.5v23.3H108v-23.3zM108 85.6L77.9 128H108zm4.1-4.4V128h57.6a62.1 62.1 0 0 0-57.6-46.8zm0 66.7v23.3h9.4v-23.3zm13.6 0v23.3h42.5v-23.3z"/></symbol><symbol id="spacebubbles" viewBox="0 0 220 256"><path d="M110 1.4l110 63.5v127l-110 63.4L.1 191.9v-127L110 1.4z"/><path fill="#fff" d="M47.9 179.9l-4.8-6.9a2.3 2.3 0 0 1 .2-2.5l17.3-20.4h-8.5A2 2 0 0 1 50 148v-15a1.9 1.9 0 0 1 2.1-2.1h12.1a57.1 57.1 0 0 1-2.3-15.9 49.3 49.3 0 0 1 98.6 0 50.6 50.6 0 0 1-2.3 15.9h12.1a1.9 1.9 0 0 1 2.1 2.1v15a2 2 0 0 1-2.1 2.1h-10.6l17.1 20.4a2.3 2.3 0 0 1 0 2.5l-4.8 6.9a2.3 2.3 0 0 1-2.7.6l-10-5.2H60.6l-10 5.2a2.3 2.3 0 0 1-2.7-.6zm31.7-29.8H65.8l-18.3 21.6 2.9 4.2 35.2-18.5zM54.2 135v10.9h114V135zm14.3-4.1h85.3a49.9 49.9 0 0 0 2.5-15.9 45.1 45.1 0 0 0-45-45C86.5 70 66 90.2 66 115c0 5.4.5 11.1 2.5 15.9zm20.1 29.8l-19.8 10.4h28.3zM85 150.1l17.5 21h15l17.6-21zm46.5 10.6l-8.5 10.4h28.3zm22.7-10.6h-13.7l-6.3 7.3 35.5 18.5 2.9-4z"/></symbol><symbol id="mecha-stilts" viewBox="0 0 220 256"><path d="M109.5.4L220 64.2v127.5l-110.5 63.8L-.9 191.7V64.2L109.5.4z"/><path fill="#fff" d="M45.4 175.1a2.3 2.3 0 0 1-2.1-2.1 2.3 2.3 0 0 1 2.1-2.1h10.5v-13.2H45.4a2 2 0 0 1-2.1-2.1v-41.3a2.1 2.1 0 0 1 2.1-2.1h13.9c1-29.7 23.2-46 50.2-46s49.3 16.3 50.3 46h13.8a2 2 0 0 1 2.1 2.1v41.3a1.9 1.9 0 0 1-2.1 2.1h-10.4v13.2h10.4a2.2 2.2 0 0 1 2.1 2.1 2.3 2.3 0 0 1-2.1 2.1zm2.1-58.7v37.1h124v-37.1zm12.6 41.3v13.2h13.4v-13.2zm3.4-45.5h92.1c-1-27-21.6-41.9-46.1-41.9s-45 14.9-46 41.9zm14.2 45.5v13.2h20.9v-13.2zm25.1 0v13.2h13.4v-13.2zm56.8-14.3h-51.1a2.1 2.1 0 1 1 0-4.1h51.1a2.1 2.1 0 1 1 0 4.1zm-39.2 14.3v13.2h21v-13.2zm25.2 0v13.2H159v-13.2z"/></symbol><symbol id="superdomes" viewBox="0 0 220 256"><path d="M110 .4l110 63.9v127.8L110 256 .1 192.1V64.3L110 .4z"/><path fill="#fff" d="M49.8 175.4a1.9 1.9 0 0 1-2.1-2.1v-25.4H20.2a2.2 2.2 0 0 1-2.1-2.1 2.3 2.3 0 0 1 2.1-2.1h15.6v-13.6a1.9 1.9 0 0 1 2.1-2.1H46a66.2 66.2 0 0 1 63.8-51c.2-.2.4-.2.9 0 30.8.2 56.5 22 63.4 51h8.1a2 2 0 0 1 2.1 2.1v13.6h15.6a2.3 2.3 0 0 1 2.1 2.1 2.2 2.2 0 0 1-2.1 2.1h-27.5v25.4a1.9 1.9 0 0 1-2.1 2.1zM40 132.2v11.5h140.1v-11.5zm65.9-50.8c-26.7 1.7-49 21.2-55.5 46.6h22.3zm-54 66.5v23.3H108v-23.3zM108 85.6L77.9 128H108zm4.1-4.4V128h57.6a62.1 62.1 0 0 0-57.6-46.8zm0 66.7v23.3h9.4v-23.3zm13.6 0v23.3h42.5v-23.3z"/></symbol><symbol id="superdomes" viewBox="0 0 220 256"><path d="M110 .4l110 63.9v127.8L110 256 .1 192.1V64.3L110 .4z"/><path fill="#fff" d="M49.8 175.4a1.9 1.9 0 0 1-2.1-2.1v-25.4H20.2a2.2 2.2 0 0 1-2.1-2.1 2.3 2.3 0 0 1 2.1-2.1h15.6v-13.6a1.9 1.9 0 0 1 2.1-2.1H46a66.2 66.2 0 0 1 63.8-51c.2-.2.4-.2.9 0 30.8.2 56.5 22 63.4 51h8.1a2 2 0 0 1 2.1 2.1v13.6h15.6a2.3 2.3 0 0 1 2.1 2.1 2.2 2.2 0 0 1-2.1 2.1h-27.5v25.4a1.9 1.9 0 0 1-2.1 2.1zM40 132.2v11.5h140.1v-11.5zm65.9-50.8c-26.7 1.7-49 21.2-55.5 46.6h22.3zm-54 66.5v23.3H108v-23.3zM108 85.6L77.9 128H108zm4.1-4.4V128h57.6a62.1 62.1 0 0 0-57.6-46.8zm0 66.7v23.3h9.4v-23.3zm13.6 0v23.3h42.5v-23.3z"/></symbol><symbol id="mecha-stilts" viewBox="0 0 220 256"><path d="M109.5.4L220 64.2v127.5l-110.5 63.8L-.9 191.7V64.2L109.5.4z"/><path fill="#fff" d="M45.4 175.1a2.3 2.3 0 0 1-2.1-2.1 2.3 2.3 0 0 1 2.1-2.1h10.5v-13.2H45.4a2 2 0 0 1-2.1-2.1v-41.3a2.1 2.1 0 0 1 2.1-2.1h13.9c1-29.7 23.2-46 50.2-46s49.3 16.3 50.3 46h13.8a2 2 0 0 1 2.1 2.1v41.3a1.9 1.9 0 0 1-2.1 2.1h-10.4v13.2h10.4a2.2 2.2 0 0 1 2.1 2.1 2.3 2.3 0 0 1-2.1 2.1zm2.1-58.7v37.1h124v-37.1zm12.6 41.3v13.2h13.4v-13.2zm3.4-45.5h92.1c-1-27-21.6-41.9-46.1-41.9s-45 14.9-46 41.9zm14.2 45.5v13.2h20.9v-13.2zm25.1 0v13.2h13.4v-13.2zm56.8-14.3h-51.1a2.1 2.1 0 1 1 0-4.1h51.1a2.1 2.1 0 1 1 0 4.1zm-39.2 14.3v13.2h21v-13.2zm25.2 0v13.2H159v-13.2z"/></symbol><symbol id="mecha-stilts" viewBox="0 0 220 256"><path d="M109.5.4L220 64.2v127.5l-110.5 63.8L-.9 191.7V64.2L109.5.4z"/><path fill="#fff" d="M45.4 175.1a2.3 2.3 0 0 1-2.1-2.1 2.3 2.3 0 0 1 2.1-2.1h10.5v-13.2H45.4a2 2 0 0 1-2.1-2.1v-41.3a2.1 2.1 0 0 1 2.1-2.1h13.9c1-29.7 23.2-46 50.2-46s49.3 16.3 50.3 46h13.8a2 2 0 0 1 2.1 2.1v41.3a1.9 1.9 0 0 1-2.1 2.1h-10.4v13.2h10.4a2.2 2.2 0 0 1 2.1 2.1 2.3 2.3 0 0 1-2.1 2.1zm2.1-58.7v37.1h124v-37.1zm12.6 41.3v13.2h13.4v-13.2zm3.4-45.5h92.1c-1-27-21.6-41.9-46.1-41.9s-45 14.9-46 41.9zm14.2 45.5v13.2h20.9v-13.2zm25.1 0v13.2h13.4v-13.2zm56.8-14.3h-51.1a2.1 2.1 0 1 1 0-4.1h51.1a2.1 2.1 0 1 1 0 4.1zm-39.2 14.3v13.2h21v-13.2zm25.2 0v13.2H159v-13.2z"/></symbol><symbol id="spacebubbles" viewBox="0 0 220 256"><path d="M110 1.4l110 63.5v127l-110 63.4L.1 191.9v-127L110 1.4z"/><path fill="#fff" d="M47.9 179.9l-4.8-6.9a2.3 2.3 0 0 1 .2-2.5l17.3-20.4h-8.5A2 2 0 0 1 50 148v-15a1.9 1.9 0 0 1 2.1-2.1h12.1a57.1 57.1 0 0 1-2.3-15.9 49.3 49.3 0 0 1 98.6 0 50.6 50.6 0 0 1-2.3 15.9h12.1a1.9 1.9 0 0 1 2.1 2.1v15a2 2 0 0 1-2.1 2.1h-10.6l17.1 20.4a2.3 2.3 0 0 1 0 2.5l-4.8 6.9a2.3 2.3 0 0 1-2.7.6l-10-5.2H60.6l-10 5.2a2.3 2.3 0 0 1-2.7-.6zm31.7-29.8H65.8l-18.3 21.6 2.9 4.2 35.2-18.5zM54.2 135v10.9h114V135zm14.3-4.1h85.3a49.9 49.9 0 0 0 2.5-15.9 45.1 45.1 0 0 0-45-45C86.5 70 66 90.2 66 115c0 5.4.5 11.1 2.5 15.9zm20.1 29.8l-19.8 10.4h28.3zM85 150.1l17.5 21h15l17.6-21zm46.5 10.6l-8.5 10.4h28.3zm22.7-10.6h-13.7l-6.3 7.3 35.5 18.5 2.9-4z"/></symbol><symbol id="superdomes" viewBox="0 0 220 256"><path d="M110 .4l110 63.9v127.8L110 256 .1 192.1V64.3L110 .4z"/><path fill="#fff" d="M49.8 175.4a1.9 1.9 0 0 1-2.1-2.1v-25.4H20.2a2.2 2.2 0 0 1-2.1-2.1 2.3 2.3 0 0 1 2.1-2.1h15.6v-13.6a1.9 1.9 0 0 1 2.1-2.1H46a66.2 66.2 0 0 1 63.8-51c.2-.2.4-.2.9 0 30.8.2 56.5 22 63.4 51h8.1a2 2 0 0 1 2.1 2.1v13.6h15.6a2.3 2.3 0 0 1 2.1 2.1 2.2 2.2 0 0 1-2.1 2.1h-27.5v25.4a1.9 1.9 0 0 1-2.1 2.1zM40 132.2v11.5h140.1v-11.5zm65.9-50.8c-26.7 1.7-49 21.2-55.5 46.6h22.3zm-54 66.5v23.3H108v-23.3zM108 85.6L77.9 128H108zm4.1-4.4V128h57.6a62.1 62.1 0 0 0-57.6-46.8zm0 66.7v23.3h9.4v-23.3zm13.6 0v23.3h42.5v-23.3z"/></symbol></svg>