<svg xmlns="http://www.w3.org/2000/svg"><symbol id="superdomes" viewBox="0 0 128 147"><path d="M30.1 84.5h32.6v13.37H30.1zm35.1-38.3V73h33.5a36 36 0 0 0-33.5-26.8zM62.8 73V48.7L45.3 73h17.5zm-1.2-26.7A35.7 35.7 0 0 0 29.3 73h13zm3.6 38.2h5.5v13.37h-5.5zm7.9 0h24.8v13.37H73.1z"/><path d="M64-.2L0 36.5v73.3l64 36.7 64-36.7V36.5zm52.3 84.7h-16V99a1.1 1.1 0 0 1-1.2 1.2H28.9a1.1 1.1 0 0 1-1.2-1.2V84.5h-16a1.2 1.2 0 1 1 0-2.4h9.1v-7.9A1.2 1.2 0 0 1 22 73h4.7a38.6 38.6 0 0 1 37.2-29.3c.1-.1.2-.1.5 0A38.5 38.5 0 0 1 101.3 73h4.7a1.2 1.2 0 0 1 1.2 1.2v7.9h9.1a1.2 1.2 0 0 1 0 2.4z"/><path d="M23.2 75.4h81.6v6.63H23.2z"/></symbol><symbol id="spacebubbles" viewBox="0 0 128 147"><path d="M46.2 86.3h-8L27.5 98.9l1.7 2.5 20.5-10.8-3.5-4.3zm-6.3 12.3h16.5l-5-6.1-11.5 6.1zm-8.5-21h66.3v6.3H31.4zm57.9-2.4a28.6 28.6 0 0 0 1.5-9.2 26.3 26.3 0 0 0-52.5 0 23.7 23.7 0 0 0 1.5 9.2zm-40 11.1l10.2 12.3h8.7l10.2-12.3H49.3zm22.1 12.3h16.5l-11.5-6.1-5 6.1z"/><path d="M63.9 0L0 36.9v73.7l63.9 36.9 63.9-36.9V36.9zm38.7 99.7l-2.7 4a1.4 1.4 0 0 1-1.6.3l-5.8-3H35.2l-5.8 3a1.4 1.4 0 0 1-1.6-.3l-2.8-4a1.2 1.2 0 0 1 .1-1.5l10.1-11.9h-5a1.2 1.2 0 0 1-1.2-1.2v-8.7a1.2 1.2 0 0 1 1.2-1.2h7a35.8 35.8 0 0 1-1.3-9.2 28.7 28.7 0 0 1 57.3 0 32 32 0 0 1-1.3 9.2h7a1.2 1.2 0 0 1 1.2 1.2v8.7a1.2 1.2 0 0 1-1.2 1.2h-6.2l9.9 11.9a1.2 1.2 0 0 1 0 1.5z"/><path d="M81.6 86.3l-3.7 4.3 20.6 10.8 1.7-2.3-10.6-12.8h-8z"/></symbol><symbol id="mechastilts" viewBox="0 0 128 147"><path d="M84.9 90.5h7.8v7.55h-7.8zm-24.8 0h7.8v7.55h-7.8zm-14.5 0h12.1v7.55H45.6zm24.7 0h12.1v7.55H70.3zm-6.3-50c-14.2 0-26.1 8.5-26.7 24h53.4c-.6-15.5-12.5-24-26.7-24z"/><path d="M64 .5L0 37v73l64 36.5 64-36.5V37zm38.4 88.8a1.2 1.2 0 0 1-1.3 1.2h-6v7.6h6a1.2 1.2 0 1 1 0 2.4H26.9a1.2 1.2 0 1 1 0-2.4h6v-7.6h-6a1.2 1.2 0 0 1-1.3-1.2V65.7a1.2 1.2 0 0 1 1.3-1.2h8c.6-17 13.4-26.4 29.1-26.4s28.5 9.4 29.1 26.4h8a1.2 1.2 0 0 1 1.3 1.2z"/><path d="M35.4 90.5h7.8v7.55h-7.8zm-7.3-2.4h71.8V66.9H28.1zM63.4 80H93a1.2 1.2 0 0 1 0 2.4H63.4a1.2 1.2 0 1 1 0-2.4z"/></symbol><symbol id="superdomes" viewBox="0 0 128 147"><path d="M30.1 84.5h32.6v13.37H30.1zm35.1-38.3V73h33.5a36 36 0 0 0-33.5-26.8zM62.8 73V48.7L45.3 73h17.5zm-1.2-26.7A35.7 35.7 0 0 0 29.3 73h13zm3.6 38.2h5.5v13.37h-5.5zm7.9 0h24.8v13.37H73.1z"/><path d="M64-.2L0 36.5v73.3l64 36.7 64-36.7V36.5zm52.3 84.7h-16V99a1.1 1.1 0 0 1-1.2 1.2H28.9a1.1 1.1 0 0 1-1.2-1.2V84.5h-16a1.2 1.2 0 1 1 0-2.4h9.1v-7.9A1.2 1.2 0 0 1 22 73h4.7a38.6 38.6 0 0 1 37.2-29.3c.1-.1.2-.1.5 0A38.5 38.5 0 0 1 101.3 73h4.7a1.2 1.2 0 0 1 1.2 1.2v7.9h9.1a1.2 1.2 0 0 1 0 2.4z"/><path d="M23.2 75.4h81.6v6.63H23.2z"/></symbol><symbol id="superdomes" viewBox="0 0 128 147"><path d="M30.1 84.5h32.6v13.37H30.1zm35.1-38.3V73h33.5a36 36 0 0 0-33.5-26.8zM62.8 73V48.7L45.3 73h17.5zm-1.2-26.7A35.7 35.7 0 0 0 29.3 73h13zm3.6 38.2h5.5v13.37h-5.5zm7.9 0h24.8v13.37H73.1z"/><path d="M64-.2L0 36.5v73.3l64 36.7 64-36.7V36.5zm52.3 84.7h-16V99a1.1 1.1 0 0 1-1.2 1.2H28.9a1.1 1.1 0 0 1-1.2-1.2V84.5h-16a1.2 1.2 0 1 1 0-2.4h9.1v-7.9A1.2 1.2 0 0 1 22 73h4.7a38.6 38.6 0 0 1 37.2-29.3c.1-.1.2-.1.5 0A38.5 38.5 0 0 1 101.3 73h4.7a1.2 1.2 0 0 1 1.2 1.2v7.9h9.1a1.2 1.2 0 0 1 0 2.4z"/><path d="M23.2 75.4h81.6v6.63H23.2z"/></symbol><symbol id="superdomes" viewBox="0 0 128 147"><path d="M30.1 84.5h32.6v13.37H30.1zm35.1-38.3V73h33.5a36 36 0 0 0-33.5-26.8zM62.8 73V48.7L45.3 73h17.5zm-1.2-26.7A35.7 35.7 0 0 0 29.3 73h13zm3.6 38.2h5.5v13.37h-5.5zm7.9 0h24.8v13.37H73.1z"/><path d="M64-.2L0 36.5v73.3l64 36.7 64-36.7V36.5zm52.3 84.7h-16V99a1.1 1.1 0 0 1-1.2 1.2H28.9a1.1 1.1 0 0 1-1.2-1.2V84.5h-16a1.2 1.2 0 1 1 0-2.4h9.1v-7.9A1.2 1.2 0 0 1 22 73h4.7a38.6 38.6 0 0 1 37.2-29.3c.1-.1.2-.1.5 0A38.5 38.5 0 0 1 101.3 73h4.7a1.2 1.2 0 0 1 1.2 1.2v7.9h9.1a1.2 1.2 0 0 1 0 2.4z"/><path d="M23.2 75.4h81.6v6.63H23.2z"/></symbol><symbol id="mechastilts" viewBox="0 0 128 147"><path d="M84.9 90.5h7.8v7.55h-7.8zm-24.8 0h7.8v7.55h-7.8zm-14.5 0h12.1v7.55H45.6zm24.7 0h12.1v7.55H70.3zm-6.3-50c-14.2 0-26.1 8.5-26.7 24h53.4c-.6-15.5-12.5-24-26.7-24z"/><path d="M64 .5L0 37v73l64 36.5 64-36.5V37zm38.4 88.8a1.2 1.2 0 0 1-1.3 1.2h-6v7.6h6a1.2 1.2 0 1 1 0 2.4H26.9a1.2 1.2 0 1 1 0-2.4h6v-7.6h-6a1.2 1.2 0 0 1-1.3-1.2V65.7a1.2 1.2 0 0 1 1.3-1.2h8c.6-17 13.4-26.4 29.1-26.4s28.5 9.4 29.1 26.4h8a1.2 1.2 0 0 1 1.3 1.2z"/><path d="M35.4 90.5h7.8v7.55h-7.8zm-7.3-2.4h71.8V66.9H28.1zM63.4 80H93a1.2 1.2 0 0 1 0 2.4H63.4a1.2 1.2 0 1 1 0-2.4z"/></symbol><symbol id="mechastilts" viewBox="0 0 128 147"><path d="M84.9 90.5h7.8v7.55h-7.8zm-24.8 0h7.8v7.55h-7.8zm-14.5 0h12.1v7.55H45.6zm24.7 0h12.1v7.55H70.3zm-6.3-50c-14.2 0-26.1 8.5-26.7 24h53.4c-.6-15.5-12.5-24-26.7-24z"/><path d="M64 .5L0 37v73l64 36.5 64-36.5V37zm38.4 88.8a1.2 1.2 0 0 1-1.3 1.2h-6v7.6h6a1.2 1.2 0 1 1 0 2.4H26.9a1.2 1.2 0 1 1 0-2.4h6v-7.6h-6a1.2 1.2 0 0 1-1.3-1.2V65.7a1.2 1.2 0 0 1 1.3-1.2h8c.6-17 13.4-26.4 29.1-26.4s28.5 9.4 29.1 26.4h8a1.2 1.2 0 0 1 1.3 1.2z"/><path d="M35.4 90.5h7.8v7.55h-7.8zm-7.3-2.4h71.8V66.9H28.1zM63.4 80H93a1.2 1.2 0 0 1 0 2.4H63.4a1.2 1.2 0 1 1 0-2.4z"/></symbol><symbol id="spacebubbles" viewBox="0 0 128 147"><path d="M46.2 86.3h-8L27.5 98.9l1.7 2.5 20.5-10.8-3.5-4.3zm-6.3 12.3h16.5l-5-6.1-11.5 6.1zm-8.5-21h66.3v6.3H31.4zm57.9-2.4a28.6 28.6 0 0 0 1.5-9.2 26.3 26.3 0 0 0-52.5 0 23.7 23.7 0 0 0 1.5 9.2zm-40 11.1l10.2 12.3h8.7l10.2-12.3H49.3zm22.1 12.3h16.5l-11.5-6.1-5 6.1z"/><path d="M63.9 0L0 36.9v73.7l63.9 36.9 63.9-36.9V36.9zm38.7 99.7l-2.7 4a1.4 1.4 0 0 1-1.6.3l-5.8-3H35.2l-5.8 3a1.4 1.4 0 0 1-1.6-.3l-2.8-4a1.2 1.2 0 0 1 .1-1.5l10.1-11.9h-5a1.2 1.2 0 0 1-1.2-1.2v-8.7a1.2 1.2 0 0 1 1.2-1.2h7a35.8 35.8 0 0 1-1.3-9.2 28.7 28.7 0 0 1 57.3 0 32 32 0 0 1-1.3 9.2h7a1.2 1.2 0 0 1 1.2 1.2v8.7a1.2 1.2 0 0 1-1.2 1.2h-6.2l9.9 11.9a1.2 1.2 0 0 1 0 1.5z"/><path d="M81.6 86.3l-3.7 4.3 20.6 10.8 1.7-2.3-10.6-12.8h-8z"/></symbol><symbol id="superdomes" viewBox="0 0 128 147"><path d="M30.1 84.5h32.6v13.37H30.1zm35.1-38.3V73h33.5a36 36 0 0 0-33.5-26.8zM62.8 73V48.7L45.3 73h17.5zm-1.2-26.7A35.7 35.7 0 0 0 29.3 73h13zm3.6 38.2h5.5v13.37h-5.5zm7.9 0h24.8v13.37H73.1z"/><path d="M64-.2L0 36.5v73.3l64 36.7 64-36.7V36.5zm52.3 84.7h-16V99a1.1 1.1 0 0 1-1.2 1.2H28.9a1.1 1.1 0 0 1-1.2-1.2V84.5h-16a1.2 1.2 0 1 1 0-2.4h9.1v-7.9A1.2 1.2 0 0 1 22 73h4.7a38.6 38.6 0 0 1 37.2-29.3c.1-.1.2-.1.5 0A38.5 38.5 0 0 1 101.3 73h4.7a1.2 1.2 0 0 1 1.2 1.2v7.9h9.1a1.2 1.2 0 0 1 0 2.4z"/><path d="M23.2 75.4h81.6v6.63H23.2z"/></symbol><symbol id="mechastilts" viewBox="0 0 128 147"><path d="M84.9 90.5h7.8v7.55h-7.8zm-24.8 0h7.8v7.55h-7.8zm-14.5 0h12.1v7.55H45.6zm24.7 0h12.1v7.55H70.3zm-6.3-50c-14.2 0-26.1 8.5-26.7 24h53.4c-.6-15.5-12.5-24-26.7-24z"/><path d="M64 .5L0 37v73l64 36.5 64-36.5V37zm38.4 88.8a1.2 1.2 0 0 1-1.3 1.2h-6v7.6h6a1.2 1.2 0 1 1 0 2.4H26.9a1.2 1.2 0 1 1 0-2.4h6v-7.6h-6a1.2 1.2 0 0 1-1.3-1.2V65.7a1.2 1.2 0 0 1 1.3-1.2h8c.6-17 13.4-26.4 29.1-26.4s28.5 9.4 29.1 26.4h8a1.2 1.2 0 0 1 1.3 1.2z"/><path d="M35.4 90.5h7.8v7.55h-7.8zm-7.3-2.4h71.8V66.9H28.1zM63.4 80H93a1.2 1.2 0 0 1 0 2.4H63.4a1.2 1.2 0 1 1 0-2.4z"/></symbol><symbol id="superdomes" viewBox="0 0 128 147"><path d="M30.1 84.5h32.6v13.37H30.1zm35.1-38.3V73h33.5a36 36 0 0 0-33.5-26.8zM62.8 73V48.7L45.3 73h17.5zm-1.2-26.7A35.7 35.7 0 0 0 29.3 73h13zm3.6 38.2h5.5v13.37h-5.5zm7.9 0h24.8v13.37H73.1z"/><path d="M64-.2L0 36.5v73.3l64 36.7 64-36.7V36.5zm52.3 84.7h-16V99a1.1 1.1 0 0 1-1.2 1.2H28.9a1.1 1.1 0 0 1-1.2-1.2V84.5h-16a1.2 1.2 0 1 1 0-2.4h9.1v-7.9A1.2 1.2 0 0 1 22 73h4.7a38.6 38.6 0 0 1 37.2-29.3c.1-.1.2-.1.5 0A38.5 38.5 0 0 1 101.3 73h4.7a1.2 1.2 0 0 1 1.2 1.2v7.9h9.1a1.2 1.2 0 0 1 0 2.4z"/><path d="M23.2 75.4h81.6v6.63H23.2z"/></symbol><symbol id="superdomes" viewBox="0 0 128 147"><path d="M30.1 84.5h32.6v13.37H30.1zm35.1-38.3V73h33.5a36 36 0 0 0-33.5-26.8zM62.8 73V48.7L45.3 73h17.5zm-1.2-26.7A35.7 35.7 0 0 0 29.3 73h13zm3.6 38.2h5.5v13.37h-5.5zm7.9 0h24.8v13.37H73.1z"/><path d="M64-.2L0 36.5v73.3l64 36.7 64-36.7V36.5zm52.3 84.7h-16V99a1.1 1.1 0 0 1-1.2 1.2H28.9a1.1 1.1 0 0 1-1.2-1.2V84.5h-16a1.2 1.2 0 1 1 0-2.4h9.1v-7.9A1.2 1.2 0 0 1 22 73h4.7a38.6 38.6 0 0 1 37.2-29.3c.1-.1.2-.1.5 0A38.5 38.5 0 0 1 101.3 73h4.7a1.2 1.2 0 0 1 1.2 1.2v7.9h9.1a1.2 1.2 0 0 1 0 2.4z"/><path d="M23.2 75.4h81.6v6.63H23.2z"/></symbol><symbol id="spacebubbles" viewBox="0 0 128 147"><path d="M46.2 86.3h-8L27.5 98.9l1.7 2.5 20.5-10.8-3.5-4.3zm-6.3 12.3h16.5l-5-6.1-11.5 6.1zm-8.5-21h66.3v6.3H31.4zm57.9-2.4a28.6 28.6 0 0 0 1.5-9.2 26.3 26.3 0 0 0-52.5 0 23.7 23.7 0 0 0 1.5 9.2zm-40 11.1l10.2 12.3h8.7l10.2-12.3H49.3zm22.1 12.3h16.5l-11.5-6.1-5 6.1z"/><path d="M63.9 0L0 36.9v73.7l63.9 36.9 63.9-36.9V36.9zm38.7 99.7l-2.7 4a1.4 1.4 0 0 1-1.6.3l-5.8-3H35.2l-5.8 3a1.4 1.4 0 0 1-1.6-.3l-2.8-4a1.2 1.2 0 0 1 .1-1.5l10.1-11.9h-5a1.2 1.2 0 0 1-1.2-1.2v-8.7a1.2 1.2 0 0 1 1.2-1.2h7a35.8 35.8 0 0 1-1.3-9.2 28.7 28.7 0 0 1 57.3 0 32 32 0 0 1-1.3 9.2h7a1.2 1.2 0 0 1 1.2 1.2v8.7a1.2 1.2 0 0 1-1.2 1.2h-6.2l9.9 11.9a1.2 1.2 0 0 1 0 1.5z"/><path d="M81.6 86.3l-3.7 4.3 20.6 10.8 1.7-2.3-10.6-12.8h-8z"/></symbol><symbol id="mechastilts" viewBox="0 0 128 147"><path d="M84.9 90.5h7.8v7.55h-7.8zm-24.8 0h7.8v7.55h-7.8zm-14.5 0h12.1v7.55H45.6zm24.7 0h12.1v7.55H70.3zm-6.3-50c-14.2 0-26.1 8.5-26.7 24h53.4c-.6-15.5-12.5-24-26.7-24z"/><path d="M64 .5L0 37v73l64 36.5 64-36.5V37zm38.4 88.8a1.2 1.2 0 0 1-1.3 1.2h-6v7.6h6a1.2 1.2 0 1 1 0 2.4H26.9a1.2 1.2 0 1 1 0-2.4h6v-7.6h-6a1.2 1.2 0 0 1-1.3-1.2V65.7a1.2 1.2 0 0 1 1.3-1.2h8c.6-17 13.4-26.4 29.1-26.4s28.5 9.4 29.1 26.4h8a1.2 1.2 0 0 1 1.3 1.2z"/><path d="M35.4 90.5h7.8v7.55h-7.8zm-7.3-2.4h71.8V66.9H28.1zM63.4 80H93a1.2 1.2 0 0 1 0 2.4H63.4a1.2 1.2 0 1 1 0-2.4z"/></symbol><symbol id="superdomes" viewBox="0 0 128 147"><path d="M30.1 84.5h32.6v13.37H30.1zm35.1-38.3V73h33.5a36 36 0 0 0-33.5-26.8zM62.8 73V48.7L45.3 73h17.5zm-1.2-26.7A35.7 35.7 0 0 0 29.3 73h13zm3.6 38.2h5.5v13.37h-5.5zm7.9 0h24.8v13.37H73.1z"/><path d="M64-.2L0 36.5v73.3l64 36.7 64-36.7V36.5zm52.3 84.7h-16V99a1.1 1.1 0 0 1-1.2 1.2H28.9a1.1 1.1 0 0 1-1.2-1.2V84.5h-16a1.2 1.2 0 1 1 0-2.4h9.1v-7.9A1.2 1.2 0 0 1 22 73h4.7a38.6 38.6 0 0 1 37.2-29.3c.1-.1.2-.1.5 0A38.5 38.5 0 0 1 101.3 73h4.7a1.2 1.2 0 0 1 1.2 1.2v7.9h9.1a1.2 1.2 0 0 1 0 2.4z"/><path d="M23.2 75.4h81.6v6.63H23.2z"/></symbol><symbol id="superdomes" viewBox="0 0 128 147"><path d="M30.1 84.5h32.6v13.37H30.1zm35.1-38.3V73h33.5a36 36 0 0 0-33.5-26.8zM62.8 73V48.7L45.3 73h17.5zm-1.2-26.7A35.7 35.7 0 0 0 29.3 73h13zm3.6 38.2h5.5v13.37h-5.5zm7.9 0h24.8v13.37H73.1z"/><path d="M64-.2L0 36.5v73.3l64 36.7 64-36.7V36.5zm52.3 84.7h-16V99a1.1 1.1 0 0 1-1.2 1.2H28.9a1.1 1.1 0 0 1-1.2-1.2V84.5h-16a1.2 1.2 0 1 1 0-2.4h9.1v-7.9A1.2 1.2 0 0 1 22 73h4.7a38.6 38.6 0 0 1 37.2-29.3c.1-.1.2-.1.5 0A38.5 38.5 0 0 1 101.3 73h4.7a1.2 1.2 0 0 1 1.2 1.2v7.9h9.1a1.2 1.2 0 0 1 0 2.4z"/><path d="M23.2 75.4h81.6v6.63H23.2z"/></symbol><symbol id="mechastilts" viewBox="0 0 128 147"><path d="M84.9 90.5h7.8v7.55h-7.8zm-24.8 0h7.8v7.55h-7.8zm-14.5 0h12.1v7.55H45.6zm24.7 0h12.1v7.55H70.3zm-6.3-50c-14.2 0-26.1 8.5-26.7 24h53.4c-.6-15.5-12.5-24-26.7-24z"/><path d="M64 .5L0 37v73l64 36.5 64-36.5V37zm38.4 88.8a1.2 1.2 0 0 1-1.3 1.2h-6v7.6h6a1.2 1.2 0 1 1 0 2.4H26.9a1.2 1.2 0 1 1 0-2.4h6v-7.6h-6a1.2 1.2 0 0 1-1.3-1.2V65.7a1.2 1.2 0 0 1 1.3-1.2h8c.6-17 13.4-26.4 29.1-26.4s28.5 9.4 29.1 26.4h8a1.2 1.2 0 0 1 1.3 1.2z"/><path d="M35.4 90.5h7.8v7.55h-7.8zm-7.3-2.4h71.8V66.9H28.1zM63.4 80H93a1.2 1.2 0 0 1 0 2.4H63.4a1.2 1.2 0 1 1 0-2.4z"/></symbol><symbol id="mechastilts" viewBox="0 0 128 147"><path d="M84.9 90.5h7.8v7.55h-7.8zm-24.8 0h7.8v7.55h-7.8zm-14.5 0h12.1v7.55H45.6zm24.7 0h12.1v7.55H70.3zm-6.3-50c-14.2 0-26.1 8.5-26.7 24h53.4c-.6-15.5-12.5-24-26.7-24z"/><path d="M64 .5L0 37v73l64 36.5 64-36.5V37zm38.4 88.8a1.2 1.2 0 0 1-1.3 1.2h-6v7.6h6a1.2 1.2 0 1 1 0 2.4H26.9a1.2 1.2 0 1 1 0-2.4h6v-7.6h-6a1.2 1.2 0 0 1-1.3-1.2V65.7a1.2 1.2 0 0 1 1.3-1.2h8c.6-17 13.4-26.4 29.1-26.4s28.5 9.4 29.1 26.4h8a1.2 1.2 0 0 1 1.3 1.2z"/><path d="M35.4 90.5h7.8v7.55h-7.8zm-7.3-2.4h71.8V66.9H28.1zM63.4 80H93a1.2 1.2 0 0 1 0 2.4H63.4a1.2 1.2 0 1 1 0-2.4z"/></symbol><symbol id="superdomes" viewBox="0 0 128 147"><path d="M30.1 84.5h32.6v13.37H30.1zm35.1-38.3V73h33.5a36 36 0 0 0-33.5-26.8zM62.8 73V48.7L45.3 73h17.5zm-1.2-26.7A35.7 35.7 0 0 0 29.3 73h13zm3.6 38.2h5.5v13.37h-5.5zm7.9 0h24.8v13.37H73.1z"/><path d="M64-.2L0 36.5v73.3l64 36.7 64-36.7V36.5zm52.3 84.7h-16V99a1.1 1.1 0 0 1-1.2 1.2H28.9a1.1 1.1 0 0 1-1.2-1.2V84.5h-16a1.2 1.2 0 1 1 0-2.4h9.1v-7.9A1.2 1.2 0 0 1 22 73h4.7a38.6 38.6 0 0 1 37.2-29.3c.1-.1.2-.1.5 0A38.5 38.5 0 0 1 101.3 73h4.7a1.2 1.2 0 0 1 1.2 1.2v7.9h9.1a1.2 1.2 0 0 1 0 2.4z"/><path d="M23.2 75.4h81.6v6.63H23.2z"/></symbol><symbol id="spacebubbles" viewBox="0 0 128 147"><path d="M46.2 86.3h-8L27.5 98.9l1.7 2.5 20.5-10.8-3.5-4.3zm-6.3 12.3h16.5l-5-6.1-11.5 6.1zm-8.5-21h66.3v6.3H31.4zm57.9-2.4a28.6 28.6 0 0 0 1.5-9.2 26.3 26.3 0 0 0-52.5 0 23.7 23.7 0 0 0 1.5 9.2zm-40 11.1l10.2 12.3h8.7l10.2-12.3H49.3zm22.1 12.3h16.5l-11.5-6.1-5 6.1z"/><path d="M63.9 0L0 36.9v73.7l63.9 36.9 63.9-36.9V36.9zm38.7 99.7l-2.7 4a1.4 1.4 0 0 1-1.6.3l-5.8-3H35.2l-5.8 3a1.4 1.4 0 0 1-1.6-.3l-2.8-4a1.2 1.2 0 0 1 .1-1.5l10.1-11.9h-5a1.2 1.2 0 0 1-1.2-1.2v-8.7a1.2 1.2 0 0 1 1.2-1.2h7a35.8 35.8 0 0 1-1.3-9.2 28.7 28.7 0 0 1 57.3 0 32 32 0 0 1-1.3 9.2h7a1.2 1.2 0 0 1 1.2 1.2v8.7a1.2 1.2 0 0 1-1.2 1.2h-6.2l9.9 11.9a1.2 1.2 0 0 1 0 1.5z"/><path d="M81.6 86.3l-3.7 4.3 20.6 10.8 1.7-2.3-10.6-12.8h-8z"/></symbol><symbol id="superdomes" viewBox="0 0 128 147"><path d="M30.1 84.5h32.6v13.37H30.1zm35.1-38.3V73h33.5a36 36 0 0 0-33.5-26.8zM62.8 73V48.7L45.3 73h17.5zm-1.2-26.7A35.7 35.7 0 0 0 29.3 73h13zm3.6 38.2h5.5v13.37h-5.5zm7.9 0h24.8v13.37H73.1z"/><path d="M64-.2L0 36.5v73.3l64 36.7 64-36.7V36.5zm52.3 84.7h-16V99a1.1 1.1 0 0 1-1.2 1.2H28.9a1.1 1.1 0 0 1-1.2-1.2V84.5h-16a1.2 1.2 0 1 1 0-2.4h9.1v-7.9A1.2 1.2 0 0 1 22 73h4.7a38.6 38.6 0 0 1 37.2-29.3c.1-.1.2-.1.5 0A38.5 38.5 0 0 1 101.3 73h4.7a1.2 1.2 0 0 1 1.2 1.2v7.9h9.1a1.2 1.2 0 0 1 0 2.4z"/><path d="M23.2 75.4h81.6v6.63H23.2z"/></symbol><symbol id="superdomes" viewBox="0 0 128 147"><path d="M30.1 84.5h32.6v13.37H30.1zm35.1-38.3V73h33.5a36 36 0 0 0-33.5-26.8zM62.8 73V48.7L45.3 73h17.5zm-1.2-26.7A35.7 35.7 0 0 0 29.3 73h13zm3.6 38.2h5.5v13.37h-5.5zm7.9 0h24.8v13.37H73.1z"/><path d="M64-.2L0 36.5v73.3l64 36.7 64-36.7V36.5zm52.3 84.7h-16V99a1.1 1.1 0 0 1-1.2 1.2H28.9a1.1 1.1 0 0 1-1.2-1.2V84.5h-16a1.2 1.2 0 1 1 0-2.4h9.1v-7.9A1.2 1.2 0 0 1 22 73h4.7a38.6 38.6 0 0 1 37.2-29.3c.1-.1.2-.1.5 0A38.5 38.5 0 0 1 101.3 73h4.7a1.2 1.2 0 0 1 1.2 1.2v7.9h9.1a1.2 1.2 0 0 1 0 2.4z"/><path d="M23.2 75.4h81.6v6.63H23.2z"/></symbol><symbol id="mechastilts" viewBox="0 0 128 147"><path d="M84.9 90.5h7.8v7.55h-7.8zm-24.8 0h7.8v7.55h-7.8zm-14.5 0h12.1v7.55H45.6zm24.7 0h12.1v7.55H70.3zm-6.3-50c-14.2 0-26.1 8.5-26.7 24h53.4c-.6-15.5-12.5-24-26.7-24z"/><path d="M64 .5L0 37v73l64 36.5 64-36.5V37zm38.4 88.8a1.2 1.2 0 0 1-1.3 1.2h-6v7.6h6a1.2 1.2 0 1 1 0 2.4H26.9a1.2 1.2 0 1 1 0-2.4h6v-7.6h-6a1.2 1.2 0 0 1-1.3-1.2V65.7a1.2 1.2 0 0 1 1.3-1.2h8c.6-17 13.4-26.4 29.1-26.4s28.5 9.4 29.1 26.4h8a1.2 1.2 0 0 1 1.3 1.2z"/><path d="M35.4 90.5h7.8v7.55h-7.8zm-7.3-2.4h71.8V66.9H28.1zM63.4 80H93a1.2 1.2 0 0 1 0 2.4H63.4a1.2 1.2 0 1 1 0-2.4z"/></symbol><symbol id="spacebubbles" viewBox="0 0 128 147"><path d="M46.2 86.3h-8L27.5 98.9l1.7 2.5 20.5-10.8-3.5-4.3zm-6.3 12.3h16.5l-5-6.1-11.5 6.1zm-8.5-21h66.3v6.3H31.4zm57.9-2.4a28.6 28.6 0 0 0 1.5-9.2 26.3 26.3 0 0 0-52.5 0 23.7 23.7 0 0 0 1.5 9.2zm-40 11.1l10.2 12.3h8.7l10.2-12.3H49.3zm22.1 12.3h16.5l-11.5-6.1-5 6.1z"/><path d="M63.9 0L0 36.9v73.7l63.9 36.9 63.9-36.9V36.9zm38.7 99.7l-2.7 4a1.4 1.4 0 0 1-1.6.3l-5.8-3H35.2l-5.8 3a1.4 1.4 0 0 1-1.6-.3l-2.8-4a1.2 1.2 0 0 1 .1-1.5l10.1-11.9h-5a1.2 1.2 0 0 1-1.2-1.2v-8.7a1.2 1.2 0 0 1 1.2-1.2h7a35.8 35.8 0 0 1-1.3-9.2 28.7 28.7 0 0 1 57.3 0 32 32 0 0 1-1.3 9.2h7a1.2 1.2 0 0 1 1.2 1.2v8.7a1.2 1.2 0 0 1-1.2 1.2h-6.2l9.9 11.9a1.2 1.2 0 0 1 0 1.5z"/><path d="M81.6 86.3l-3.7 4.3 20.6 10.8 1.7-2.3-10.6-12.8h-8z"/></symbol><symbol id="superdomes" viewBox="0 0 128 147"><path d="M30.1 84.5h32.6v13.37H30.1zm35.1-38.3V73h33.5a36 36 0 0 0-33.5-26.8zM62.8 73V48.7L45.3 73h17.5zm-1.2-26.7A35.7 35.7 0 0 0 29.3 73h13zm3.6 38.2h5.5v13.37h-5.5zm7.9 0h24.8v13.37H73.1z"/><path d="M64-.2L0 36.5v73.3l64 36.7 64-36.7V36.5zm52.3 84.7h-16V99a1.1 1.1 0 0 1-1.2 1.2H28.9a1.1 1.1 0 0 1-1.2-1.2V84.5h-16a1.2 1.2 0 1 1 0-2.4h9.1v-7.9A1.2 1.2 0 0 1 22 73h4.7a38.6 38.6 0 0 1 37.2-29.3c.1-.1.2-.1.5 0A38.5 38.5 0 0 1 101.3 73h4.7a1.2 1.2 0 0 1 1.2 1.2v7.9h9.1a1.2 1.2 0 0 1 0 2.4z"/><path d="M23.2 75.4h81.6v6.63H23.2z"/></symbol><symbol id="mechastilts" viewBox="0 0 128 147"><path d="M84.9 90.5h7.8v7.55h-7.8zm-24.8 0h7.8v7.55h-7.8zm-14.5 0h12.1v7.55H45.6zm24.7 0h12.1v7.55H70.3zm-6.3-50c-14.2 0-26.1 8.5-26.7 24h53.4c-.6-15.5-12.5-24-26.7-24z"/><path d="M64 .5L0 37v73l64 36.5 64-36.5V37zm38.4 88.8a1.2 1.2 0 0 1-1.3 1.2h-6v7.6h6a1.2 1.2 0 1 1 0 2.4H26.9a1.2 1.2 0 1 1 0-2.4h6v-7.6h-6a1.2 1.2 0 0 1-1.3-1.2V65.7a1.2 1.2 0 0 1 1.3-1.2h8c.6-17 13.4-26.4 29.1-26.4s28.5 9.4 29.1 26.4h8a1.2 1.2 0 0 1 1.3 1.2z"/><path d="M35.4 90.5h7.8v7.55h-7.8zm-7.3-2.4h71.8V66.9H28.1zM63.4 80H93a1.2 1.2 0 0 1 0 2.4H63.4a1.2 1.2 0 1 1 0-2.4z"/></symbol></svg>