<svg xmlns="http://www.w3.org/2000/svg"><symbol id="superdomes" viewBox="0 0 256 256"><path d="M129.6 147.6h9.4v23.25h-9.4zm-60.5 0h56.3v23.25H69.1zm56.3-19.9V85.4l-30.1 42.3h30.1zm-2-46.5c-26.9 1.7-49.3 21.2-55.8 46.5H90zm6.2-.2v46.7h57.8c-6.4-25.9-29.9-45.6-57.8-46.7zm13.7 66.6H186v23.25h-42.7z"/><path d="M127.5.4L17.1 64.2v127.5l110.4 63.8L238 191.7V64.2zm90.3 147.2h-27.6V173a2.1 2.1 0 0 1-2.1 2.1H67a2 2 0 0 1-2.1-2.1v-25.4H37.3a2.2 2.2 0 0 1-2.1-2.1 2.3 2.3 0 0 1 2.1-2.1H53v-13.6a2 2 0 0 1 2.1-2.1h8.1a66.4 66.4 0 0 1 64.1-50.9q.3-.3.9 0c31 .2 56.7 22 63.6 50.9h8.2a2 2 0 0 1 2.1 2.1v13.6h15.7a2.3 2.3 0 0 1 2.1 2.1 2.2 2.2 0 0 1-2.1 2.1z"/><path d="M57.2 131.9H198v11.52H57.2z"/></symbol><symbol id="spacebubbles" viewBox="0 0 256 256"><path d="M97.3 149.9H83.4l-18.5 21.9 3 4.2 35.5-18.8-6.1-7.3zm74.9-19.4a50.1 50.1 0 0 0 2.6-16 45.6 45.6 0 0 0-45.5-45.4c-25 0-45.7 20.4-45.7 45.4 0 5.5.5 11.2 2.6 16zm-100.6 4.2h115.1v10.94H71.6zm14.8 36.4H115l-8.6-10.5-20 10.5zm72.4-21.2l-6.4 7.3 35.8 18.8 3-4-18.5-22.1h-13.9z"/><path d="M128-.1l-110.9 64v128.2l110.9 64 111-64V63.9zM195.4 173l-4.9 7a2.2 2.2 0 0 1-2.7.6l-10.1-5.3H78.2l-10.1 5.3a2.5 2.5 0 0 1-2.8-.6l-4.8-7a2.3 2.3 0 0 1 .2-2.5l17.5-20.6h-8.7a2.1 2.1 0 0 1-2.1-2.1v-15.2a2.1 2.1 0 0 1 2.1-2.1h12.2a61.2 61.2 0 0 1-2.3-16 49.9 49.9 0 0 1 49.9-49.6c27.1 0 49.7 22.5 49.7 49.6a50.9 50.9 0 0 1-2.4 16h12.3a2.1 2.1 0 0 1 2.1 2.1v15.2a2.1 2.1 0 0 1-2.1 2.1h-10.8l17.3 20.6a2.3 2.3 0 0 1 0 2.5z"/><path d="M102.8 149.9l17.7 21.2h15.1l17.7-21.2h-50.5zm38.3 21.2h28.6l-20-10.5-8.6 10.5z"/></symbol><symbol id="mechastilts" viewBox="0 0 256 256"><path d="M95.9 158h21v13.22h-21zm42.8 0h21v13.22h-21zm-60.5 0h13.4v13.22H78.2zm49.6-87.5c-24.6 0-45.2 14.9-46.2 42h92.3c-1-27.1-21.6-42-46.1-42zM121 158h13.4v13.22H121zm42.9 0h13.4v13.22h-13.4zm-98.3-4.2h124.3v-37.1H65.6zm61.1-14.3h51.2a2.3 2.3 0 0 1 2.1 2.1 2.2 2.2 0 0 1-2.1 2.1h-51.2a2.3 2.3 0 0 1-2.1-2.1 2.3 2.3 0 0 1 2.1-2.1z"/><path d="M127.8.4L17.1 64.3v127.8L127.8 256l110.6-63.9V64.3zm66.3 155.5a2 2 0 0 1-2.1 2.1h-10.5v13.2H192a2.3 2.3 0 0 1 2.1 2.1 2.3 2.3 0 0 1-2.1 2.1H63.5a2.3 2.3 0 0 1-2.1-2.1 2.3 2.3 0 0 1 2.1-2.1H74V158H63.5a2 2 0 0 1-2.1-2.1v-41.3a2 2 0 0 1 2.1-2.1h13.9c1-29.8 23.3-46.2 50.4-46.2s49.3 16.4 50.3 46.2H192a2 2 0 0 1 2.1 2.1z"/></symbol><symbol id="superdomes" viewBox="0 0 256 256"><path d="M129.6 147.6h9.4v23.25h-9.4zm-60.5 0h56.3v23.25H69.1zm56.3-19.9V85.4l-30.1 42.3h30.1zm-2-46.5c-26.9 1.7-49.3 21.2-55.8 46.5H90zm6.2-.2v46.7h57.8c-6.4-25.9-29.9-45.6-57.8-46.7zm13.7 66.6H186v23.25h-42.7z"/><path d="M127.5.4L17.1 64.2v127.5l110.4 63.8L238 191.7V64.2zm90.3 147.2h-27.6V173a2.1 2.1 0 0 1-2.1 2.1H67a2 2 0 0 1-2.1-2.1v-25.4H37.3a2.2 2.2 0 0 1-2.1-2.1 2.3 2.3 0 0 1 2.1-2.1H53v-13.6a2 2 0 0 1 2.1-2.1h8.1a66.4 66.4 0 0 1 64.1-50.9q.3-.3.9 0c31 .2 56.7 22 63.6 50.9h8.2a2 2 0 0 1 2.1 2.1v13.6h15.7a2.3 2.3 0 0 1 2.1 2.1 2.2 2.2 0 0 1-2.1 2.1z"/><path d="M57.2 131.9H198v11.52H57.2z"/></symbol><symbol id="superdomes" viewBox="0 0 256 256"><path d="M129.6 147.6h9.4v23.25h-9.4zm-60.5 0h56.3v23.25H69.1zm56.3-19.9V85.4l-30.1 42.3h30.1zm-2-46.5c-26.9 1.7-49.3 21.2-55.8 46.5H90zm6.2-.2v46.7h57.8c-6.4-25.9-29.9-45.6-57.8-46.7zm13.7 66.6H186v23.25h-42.7z"/><path d="M127.5.4L17.1 64.2v127.5l110.4 63.8L238 191.7V64.2zm90.3 147.2h-27.6V173a2.1 2.1 0 0 1-2.1 2.1H67a2 2 0 0 1-2.1-2.1v-25.4H37.3a2.2 2.2 0 0 1-2.1-2.1 2.3 2.3 0 0 1 2.1-2.1H53v-13.6a2 2 0 0 1 2.1-2.1h8.1a66.4 66.4 0 0 1 64.1-50.9q.3-.3.9 0c31 .2 56.7 22 63.6 50.9h8.2a2 2 0 0 1 2.1 2.1v13.6h15.7a2.3 2.3 0 0 1 2.1 2.1 2.2 2.2 0 0 1-2.1 2.1z"/><path d="M57.2 131.9H198v11.52H57.2z"/></symbol><symbol id="superdomes" viewBox="0 0 256 256"><path d="M129.6 147.6h9.4v23.25h-9.4zm-60.5 0h56.3v23.25H69.1zm56.3-19.9V85.4l-30.1 42.3h30.1zm-2-46.5c-26.9 1.7-49.3 21.2-55.8 46.5H90zm6.2-.2v46.7h57.8c-6.4-25.9-29.9-45.6-57.8-46.7zm13.7 66.6H186v23.25h-42.7z"/><path d="M127.5.4L17.1 64.2v127.5l110.4 63.8L238 191.7V64.2zm90.3 147.2h-27.6V173a2.1 2.1 0 0 1-2.1 2.1H67a2 2 0 0 1-2.1-2.1v-25.4H37.3a2.2 2.2 0 0 1-2.1-2.1 2.3 2.3 0 0 1 2.1-2.1H53v-13.6a2 2 0 0 1 2.1-2.1h8.1a66.4 66.4 0 0 1 64.1-50.9q.3-.3.9 0c31 .2 56.7 22 63.6 50.9h8.2a2 2 0 0 1 2.1 2.1v13.6h15.7a2.3 2.3 0 0 1 2.1 2.1 2.2 2.2 0 0 1-2.1 2.1z"/><path d="M57.2 131.9H198v11.52H57.2z"/></symbol><symbol id="mechastilts" viewBox="0 0 256 256"><path d="M95.9 158h21v13.22h-21zm42.8 0h21v13.22h-21zm-60.5 0h13.4v13.22H78.2zm49.6-87.5c-24.6 0-45.2 14.9-46.2 42h92.3c-1-27.1-21.6-42-46.1-42zM121 158h13.4v13.22H121zm42.9 0h13.4v13.22h-13.4zm-98.3-4.2h124.3v-37.1H65.6zm61.1-14.3h51.2a2.3 2.3 0 0 1 2.1 2.1 2.2 2.2 0 0 1-2.1 2.1h-51.2a2.3 2.3 0 0 1-2.1-2.1 2.3 2.3 0 0 1 2.1-2.1z"/><path d="M127.8.4L17.1 64.3v127.8L127.8 256l110.6-63.9V64.3zm66.3 155.5a2 2 0 0 1-2.1 2.1h-10.5v13.2H192a2.3 2.3 0 0 1 2.1 2.1 2.3 2.3 0 0 1-2.1 2.1H63.5a2.3 2.3 0 0 1-2.1-2.1 2.3 2.3 0 0 1 2.1-2.1H74V158H63.5a2 2 0 0 1-2.1-2.1v-41.3a2 2 0 0 1 2.1-2.1h13.9c1-29.8 23.3-46.2 50.4-46.2s49.3 16.4 50.3 46.2H192a2 2 0 0 1 2.1 2.1z"/></symbol><symbol id="mechastilts" viewBox="0 0 256 256"><path d="M95.9 158h21v13.22h-21zm42.8 0h21v13.22h-21zm-60.5 0h13.4v13.22H78.2zm49.6-87.5c-24.6 0-45.2 14.9-46.2 42h92.3c-1-27.1-21.6-42-46.1-42zM121 158h13.4v13.22H121zm42.9 0h13.4v13.22h-13.4zm-98.3-4.2h124.3v-37.1H65.6zm61.1-14.3h51.2a2.3 2.3 0 0 1 2.1 2.1 2.2 2.2 0 0 1-2.1 2.1h-51.2a2.3 2.3 0 0 1-2.1-2.1 2.3 2.3 0 0 1 2.1-2.1z"/><path d="M127.8.4L17.1 64.3v127.8L127.8 256l110.6-63.9V64.3zm66.3 155.5a2 2 0 0 1-2.1 2.1h-10.5v13.2H192a2.3 2.3 0 0 1 2.1 2.1 2.3 2.3 0 0 1-2.1 2.1H63.5a2.3 2.3 0 0 1-2.1-2.1 2.3 2.3 0 0 1 2.1-2.1H74V158H63.5a2 2 0 0 1-2.1-2.1v-41.3a2 2 0 0 1 2.1-2.1h13.9c1-29.8 23.3-46.2 50.4-46.2s49.3 16.4 50.3 46.2H192a2 2 0 0 1 2.1 2.1z"/></symbol><symbol id="spacebubbles" viewBox="0 0 256 256"><path d="M97.3 149.9H83.4l-18.5 21.9 3 4.2 35.5-18.8-6.1-7.3zm74.9-19.4a50.1 50.1 0 0 0 2.6-16 45.6 45.6 0 0 0-45.5-45.4c-25 0-45.7 20.4-45.7 45.4 0 5.5.5 11.2 2.6 16zm-100.6 4.2h115.1v10.94H71.6zm14.8 36.4H115l-8.6-10.5-20 10.5zm72.4-21.2l-6.4 7.3 35.8 18.8 3-4-18.5-22.1h-13.9z"/><path d="M128-.1l-110.9 64v128.2l110.9 64 111-64V63.9zM195.4 173l-4.9 7a2.2 2.2 0 0 1-2.7.6l-10.1-5.3H78.2l-10.1 5.3a2.5 2.5 0 0 1-2.8-.6l-4.8-7a2.3 2.3 0 0 1 .2-2.5l17.5-20.6h-8.7a2.1 2.1 0 0 1-2.1-2.1v-15.2a2.1 2.1 0 0 1 2.1-2.1h12.2a61.2 61.2 0 0 1-2.3-16 49.9 49.9 0 0 1 49.9-49.6c27.1 0 49.7 22.5 49.7 49.6a50.9 50.9 0 0 1-2.4 16h12.3a2.1 2.1 0 0 1 2.1 2.1v15.2a2.1 2.1 0 0 1-2.1 2.1h-10.8l17.3 20.6a2.3 2.3 0 0 1 0 2.5z"/><path d="M102.8 149.9l17.7 21.2h15.1l17.7-21.2h-50.5zm38.3 21.2h28.6l-20-10.5-8.6 10.5z"/></symbol><symbol id="superdomes" viewBox="0 0 256 256"><path d="M129.6 147.6h9.4v23.25h-9.4zm-60.5 0h56.3v23.25H69.1zm56.3-19.9V85.4l-30.1 42.3h30.1zm-2-46.5c-26.9 1.7-49.3 21.2-55.8 46.5H90zm6.2-.2v46.7h57.8c-6.4-25.9-29.9-45.6-57.8-46.7zm13.7 66.6H186v23.25h-42.7z"/><path d="M127.5.4L17.1 64.2v127.5l110.4 63.8L238 191.7V64.2zm90.3 147.2h-27.6V173a2.1 2.1 0 0 1-2.1 2.1H67a2 2 0 0 1-2.1-2.1v-25.4H37.3a2.2 2.2 0 0 1-2.1-2.1 2.3 2.3 0 0 1 2.1-2.1H53v-13.6a2 2 0 0 1 2.1-2.1h8.1a66.4 66.4 0 0 1 64.1-50.9q.3-.3.9 0c31 .2 56.7 22 63.6 50.9h8.2a2 2 0 0 1 2.1 2.1v13.6h15.7a2.3 2.3 0 0 1 2.1 2.1 2.2 2.2 0 0 1-2.1 2.1z"/><path d="M57.2 131.9H198v11.52H57.2z"/></symbol><symbol id="mechastilts" viewBox="0 0 256 256"><path d="M95.9 158h21v13.22h-21zm42.8 0h21v13.22h-21zm-60.5 0h13.4v13.22H78.2zm49.6-87.5c-24.6 0-45.2 14.9-46.2 42h92.3c-1-27.1-21.6-42-46.1-42zM121 158h13.4v13.22H121zm42.9 0h13.4v13.22h-13.4zm-98.3-4.2h124.3v-37.1H65.6zm61.1-14.3h51.2a2.3 2.3 0 0 1 2.1 2.1 2.2 2.2 0 0 1-2.1 2.1h-51.2a2.3 2.3 0 0 1-2.1-2.1 2.3 2.3 0 0 1 2.1-2.1z"/><path d="M127.8.4L17.1 64.3v127.8L127.8 256l110.6-63.9V64.3zm66.3 155.5a2 2 0 0 1-2.1 2.1h-10.5v13.2H192a2.3 2.3 0 0 1 2.1 2.1 2.3 2.3 0 0 1-2.1 2.1H63.5a2.3 2.3 0 0 1-2.1-2.1 2.3 2.3 0 0 1 2.1-2.1H74V158H63.5a2 2 0 0 1-2.1-2.1v-41.3a2 2 0 0 1 2.1-2.1h13.9c1-29.8 23.3-46.2 50.4-46.2s49.3 16.4 50.3 46.2H192a2 2 0 0 1 2.1 2.1z"/></symbol><symbol id="superdomes" viewBox="0 0 256 256"><path d="M129.6 147.6h9.4v23.25h-9.4zm-60.5 0h56.3v23.25H69.1zm56.3-19.9V85.4l-30.1 42.3h30.1zm-2-46.5c-26.9 1.7-49.3 21.2-55.8 46.5H90zm6.2-.2v46.7h57.8c-6.4-25.9-29.9-45.6-57.8-46.7zm13.7 66.6H186v23.25h-42.7z"/><path d="M127.5.4L17.1 64.2v127.5l110.4 63.8L238 191.7V64.2zm90.3 147.2h-27.6V173a2.1 2.1 0 0 1-2.1 2.1H67a2 2 0 0 1-2.1-2.1v-25.4H37.3a2.2 2.2 0 0 1-2.1-2.1 2.3 2.3 0 0 1 2.1-2.1H53v-13.6a2 2 0 0 1 2.1-2.1h8.1a66.4 66.4 0 0 1 64.1-50.9q.3-.3.9 0c31 .2 56.7 22 63.6 50.9h8.2a2 2 0 0 1 2.1 2.1v13.6h15.7a2.3 2.3 0 0 1 2.1 2.1 2.2 2.2 0 0 1-2.1 2.1z"/><path d="M57.2 131.9H198v11.52H57.2z"/></symbol><symbol id="superdomes" viewBox="0 0 256 256"><path d="M129.6 147.6h9.4v23.25h-9.4zm-60.5 0h56.3v23.25H69.1zm56.3-19.9V85.4l-30.1 42.3h30.1zm-2-46.5c-26.9 1.7-49.3 21.2-55.8 46.5H90zm6.2-.2v46.7h57.8c-6.4-25.9-29.9-45.6-57.8-46.7zm13.7 66.6H186v23.25h-42.7z"/><path d="M127.5.4L17.1 64.2v127.5l110.4 63.8L238 191.7V64.2zm90.3 147.2h-27.6V173a2.1 2.1 0 0 1-2.1 2.1H67a2 2 0 0 1-2.1-2.1v-25.4H37.3a2.2 2.2 0 0 1-2.1-2.1 2.3 2.3 0 0 1 2.1-2.1H53v-13.6a2 2 0 0 1 2.1-2.1h8.1a66.4 66.4 0 0 1 64.1-50.9q.3-.3.9 0c31 .2 56.7 22 63.6 50.9h8.2a2 2 0 0 1 2.1 2.1v13.6h15.7a2.3 2.3 0 0 1 2.1 2.1 2.2 2.2 0 0 1-2.1 2.1z"/><path d="M57.2 131.9H198v11.52H57.2z"/></symbol><symbol id="spacebubbles" viewBox="0 0 256 256"><path d="M97.3 149.9H83.4l-18.5 21.9 3 4.2 35.5-18.8-6.1-7.3zm74.9-19.4a50.1 50.1 0 0 0 2.6-16 45.6 45.6 0 0 0-45.5-45.4c-25 0-45.7 20.4-45.7 45.4 0 5.5.5 11.2 2.6 16zm-100.6 4.2h115.1v10.94H71.6zm14.8 36.4H115l-8.6-10.5-20 10.5zm72.4-21.2l-6.4 7.3 35.8 18.8 3-4-18.5-22.1h-13.9z"/><path d="M128-.1l-110.9 64v128.2l110.9 64 111-64V63.9zM195.4 173l-4.9 7a2.2 2.2 0 0 1-2.7.6l-10.1-5.3H78.2l-10.1 5.3a2.5 2.5 0 0 1-2.8-.6l-4.8-7a2.3 2.3 0 0 1 .2-2.5l17.5-20.6h-8.7a2.1 2.1 0 0 1-2.1-2.1v-15.2a2.1 2.1 0 0 1 2.1-2.1h12.2a61.2 61.2 0 0 1-2.3-16 49.9 49.9 0 0 1 49.9-49.6c27.1 0 49.7 22.5 49.7 49.6a50.9 50.9 0 0 1-2.4 16h12.3a2.1 2.1 0 0 1 2.1 2.1v15.2a2.1 2.1 0 0 1-2.1 2.1h-10.8l17.3 20.6a2.3 2.3 0 0 1 0 2.5z"/><path d="M102.8 149.9l17.7 21.2h15.1l17.7-21.2h-50.5zm38.3 21.2h28.6l-20-10.5-8.6 10.5z"/></symbol><symbol id="mechastilts" viewBox="0 0 256 256"><path d="M95.9 158h21v13.22h-21zm42.8 0h21v13.22h-21zm-60.5 0h13.4v13.22H78.2zm49.6-87.5c-24.6 0-45.2 14.9-46.2 42h92.3c-1-27.1-21.6-42-46.1-42zM121 158h13.4v13.22H121zm42.9 0h13.4v13.22h-13.4zm-98.3-4.2h124.3v-37.1H65.6zm61.1-14.3h51.2a2.3 2.3 0 0 1 2.1 2.1 2.2 2.2 0 0 1-2.1 2.1h-51.2a2.3 2.3 0 0 1-2.1-2.1 2.3 2.3 0 0 1 2.1-2.1z"/><path d="M127.8.4L17.1 64.3v127.8L127.8 256l110.6-63.9V64.3zm66.3 155.5a2 2 0 0 1-2.1 2.1h-10.5v13.2H192a2.3 2.3 0 0 1 2.1 2.1 2.3 2.3 0 0 1-2.1 2.1H63.5a2.3 2.3 0 0 1-2.1-2.1 2.3 2.3 0 0 1 2.1-2.1H74V158H63.5a2 2 0 0 1-2.1-2.1v-41.3a2 2 0 0 1 2.1-2.1h13.9c1-29.8 23.3-46.2 50.4-46.2s49.3 16.4 50.3 46.2H192a2 2 0 0 1 2.1 2.1z"/></symbol><symbol id="superdomes" viewBox="0 0 256 256"><path d="M129.6 147.6h9.4v23.25h-9.4zm-60.5 0h56.3v23.25H69.1zm56.3-19.9V85.4l-30.1 42.3h30.1zm-2-46.5c-26.9 1.7-49.3 21.2-55.8 46.5H90zm6.2-.2v46.7h57.8c-6.4-25.9-29.9-45.6-57.8-46.7zm13.7 66.6H186v23.25h-42.7z"/><path d="M127.5.4L17.1 64.2v127.5l110.4 63.8L238 191.7V64.2zm90.3 147.2h-27.6V173a2.1 2.1 0 0 1-2.1 2.1H67a2 2 0 0 1-2.1-2.1v-25.4H37.3a2.2 2.2 0 0 1-2.1-2.1 2.3 2.3 0 0 1 2.1-2.1H53v-13.6a2 2 0 0 1 2.1-2.1h8.1a66.4 66.4 0 0 1 64.1-50.9q.3-.3.9 0c31 .2 56.7 22 63.6 50.9h8.2a2 2 0 0 1 2.1 2.1v13.6h15.7a2.3 2.3 0 0 1 2.1 2.1 2.2 2.2 0 0 1-2.1 2.1z"/><path d="M57.2 131.9H198v11.52H57.2z"/></symbol><symbol id="superdomes" viewBox="0 0 256 256"><path d="M129.6 147.6h9.4v23.25h-9.4zm-60.5 0h56.3v23.25H69.1zm56.3-19.9V85.4l-30.1 42.3h30.1zm-2-46.5c-26.9 1.7-49.3 21.2-55.8 46.5H90zm6.2-.2v46.7h57.8c-6.4-25.9-29.9-45.6-57.8-46.7zm13.7 66.6H186v23.25h-42.7z"/><path d="M127.5.4L17.1 64.2v127.5l110.4 63.8L238 191.7V64.2zm90.3 147.2h-27.6V173a2.1 2.1 0 0 1-2.1 2.1H67a2 2 0 0 1-2.1-2.1v-25.4H37.3a2.2 2.2 0 0 1-2.1-2.1 2.3 2.3 0 0 1 2.1-2.1H53v-13.6a2 2 0 0 1 2.1-2.1h8.1a66.4 66.4 0 0 1 64.1-50.9q.3-.3.9 0c31 .2 56.7 22 63.6 50.9h8.2a2 2 0 0 1 2.1 2.1v13.6h15.7a2.3 2.3 0 0 1 2.1 2.1 2.2 2.2 0 0 1-2.1 2.1z"/><path d="M57.2 131.9H198v11.52H57.2z"/></symbol><symbol id="mechastilts" viewBox="0 0 256 256"><path d="M95.9 158h21v13.22h-21zm42.8 0h21v13.22h-21zm-60.5 0h13.4v13.22H78.2zm49.6-87.5c-24.6 0-45.2 14.9-46.2 42h92.3c-1-27.1-21.6-42-46.1-42zM121 158h13.4v13.22H121zm42.9 0h13.4v13.22h-13.4zm-98.3-4.2h124.3v-37.1H65.6zm61.1-14.3h51.2a2.3 2.3 0 0 1 2.1 2.1 2.2 2.2 0 0 1-2.1 2.1h-51.2a2.3 2.3 0 0 1-2.1-2.1 2.3 2.3 0 0 1 2.1-2.1z"/><path d="M127.8.4L17.1 64.3v127.8L127.8 256l110.6-63.9V64.3zm66.3 155.5a2 2 0 0 1-2.1 2.1h-10.5v13.2H192a2.3 2.3 0 0 1 2.1 2.1 2.3 2.3 0 0 1-2.1 2.1H63.5a2.3 2.3 0 0 1-2.1-2.1 2.3 2.3 0 0 1 2.1-2.1H74V158H63.5a2 2 0 0 1-2.1-2.1v-41.3a2 2 0 0 1 2.1-2.1h13.9c1-29.8 23.3-46.2 50.4-46.2s49.3 16.4 50.3 46.2H192a2 2 0 0 1 2.1 2.1z"/></symbol><symbol id="mechastilts" viewBox="0 0 256 256"><path d="M95.9 158h21v13.22h-21zm42.8 0h21v13.22h-21zm-60.5 0h13.4v13.22H78.2zm49.6-87.5c-24.6 0-45.2 14.9-46.2 42h92.3c-1-27.1-21.6-42-46.1-42zM121 158h13.4v13.22H121zm42.9 0h13.4v13.22h-13.4zm-98.3-4.2h124.3v-37.1H65.6zm61.1-14.3h51.2a2.3 2.3 0 0 1 2.1 2.1 2.2 2.2 0 0 1-2.1 2.1h-51.2a2.3 2.3 0 0 1-2.1-2.1 2.3 2.3 0 0 1 2.1-2.1z"/><path d="M127.8.4L17.1 64.3v127.8L127.8 256l110.6-63.9V64.3zm66.3 155.5a2 2 0 0 1-2.1 2.1h-10.5v13.2H192a2.3 2.3 0 0 1 2.1 2.1 2.3 2.3 0 0 1-2.1 2.1H63.5a2.3 2.3 0 0 1-2.1-2.1 2.3 2.3 0 0 1 2.1-2.1H74V158H63.5a2 2 0 0 1-2.1-2.1v-41.3a2 2 0 0 1 2.1-2.1h13.9c1-29.8 23.3-46.2 50.4-46.2s49.3 16.4 50.3 46.2H192a2 2 0 0 1 2.1 2.1z"/></symbol><symbol id="superdomes" viewBox="0 0 256 256"><path d="M129.6 147.6h9.4v23.25h-9.4zm-60.5 0h56.3v23.25H69.1zm56.3-19.9V85.4l-30.1 42.3h30.1zm-2-46.5c-26.9 1.7-49.3 21.2-55.8 46.5H90zm6.2-.2v46.7h57.8c-6.4-25.9-29.9-45.6-57.8-46.7zm13.7 66.6H186v23.25h-42.7z"/><path d="M127.5.4L17.1 64.2v127.5l110.4 63.8L238 191.7V64.2zm90.3 147.2h-27.6V173a2.1 2.1 0 0 1-2.1 2.1H67a2 2 0 0 1-2.1-2.1v-25.4H37.3a2.2 2.2 0 0 1-2.1-2.1 2.3 2.3 0 0 1 2.1-2.1H53v-13.6a2 2 0 0 1 2.1-2.1h8.1a66.4 66.4 0 0 1 64.1-50.9q.3-.3.9 0c31 .2 56.7 22 63.6 50.9h8.2a2 2 0 0 1 2.1 2.1v13.6h15.7a2.3 2.3 0 0 1 2.1 2.1 2.2 2.2 0 0 1-2.1 2.1z"/><path d="M57.2 131.9H198v11.52H57.2z"/></symbol><symbol id="spacebubbles" viewBox="0 0 256 256"><path d="M97.3 149.9H83.4l-18.5 21.9 3 4.2 35.5-18.8-6.1-7.3zm74.9-19.4a50.1 50.1 0 0 0 2.6-16 45.6 45.6 0 0 0-45.5-45.4c-25 0-45.7 20.4-45.7 45.4 0 5.5.5 11.2 2.6 16zm-100.6 4.2h115.1v10.94H71.6zm14.8 36.4H115l-8.6-10.5-20 10.5zm72.4-21.2l-6.4 7.3 35.8 18.8 3-4-18.5-22.1h-13.9z"/><path d="M128-.1l-110.9 64v128.2l110.9 64 111-64V63.9zM195.4 173l-4.9 7a2.2 2.2 0 0 1-2.7.6l-10.1-5.3H78.2l-10.1 5.3a2.5 2.5 0 0 1-2.8-.6l-4.8-7a2.3 2.3 0 0 1 .2-2.5l17.5-20.6h-8.7a2.1 2.1 0 0 1-2.1-2.1v-15.2a2.1 2.1 0 0 1 2.1-2.1h12.2a61.2 61.2 0 0 1-2.3-16 49.9 49.9 0 0 1 49.9-49.6c27.1 0 49.7 22.5 49.7 49.6a50.9 50.9 0 0 1-2.4 16h12.3a2.1 2.1 0 0 1 2.1 2.1v15.2a2.1 2.1 0 0 1-2.1 2.1h-10.8l17.3 20.6a2.3 2.3 0 0 1 0 2.5z"/><path d="M102.8 149.9l17.7 21.2h15.1l17.7-21.2h-50.5zm38.3 21.2h28.6l-20-10.5-8.6 10.5z"/></symbol><symbol id="superdomes" viewBox="0 0 256 256"><path d="M129.6 147.6h9.4v23.25h-9.4zm-60.5 0h56.3v23.25H69.1zm56.3-19.9V85.4l-30.1 42.3h30.1zm-2-46.5c-26.9 1.7-49.3 21.2-55.8 46.5H90zm6.2-.2v46.7h57.8c-6.4-25.9-29.9-45.6-57.8-46.7zm13.7 66.6H186v23.25h-42.7z"/><path d="M127.5.4L17.1 64.2v127.5l110.4 63.8L238 191.7V64.2zm90.3 147.2h-27.6V173a2.1 2.1 0 0 1-2.1 2.1H67a2 2 0 0 1-2.1-2.1v-25.4H37.3a2.2 2.2 0 0 1-2.1-2.1 2.3 2.3 0 0 1 2.1-2.1H53v-13.6a2 2 0 0 1 2.1-2.1h8.1a66.4 66.4 0 0 1 64.1-50.9q.3-.3.9 0c31 .2 56.7 22 63.6 50.9h8.2a2 2 0 0 1 2.1 2.1v13.6h15.7a2.3 2.3 0 0 1 2.1 2.1 2.2 2.2 0 0 1-2.1 2.1z"/><path d="M57.2 131.9H198v11.52H57.2z"/></symbol><symbol id="superdomes" viewBox="0 0 256 256"><path d="M129.6 147.6h9.4v23.25h-9.4zm-60.5 0h56.3v23.25H69.1zm56.3-19.9V85.4l-30.1 42.3h30.1zm-2-46.5c-26.9 1.7-49.3 21.2-55.8 46.5H90zm6.2-.2v46.7h57.8c-6.4-25.9-29.9-45.6-57.8-46.7zm13.7 66.6H186v23.25h-42.7z"/><path d="M127.5.4L17.1 64.2v127.5l110.4 63.8L238 191.7V64.2zm90.3 147.2h-27.6V173a2.1 2.1 0 0 1-2.1 2.1H67a2 2 0 0 1-2.1-2.1v-25.4H37.3a2.2 2.2 0 0 1-2.1-2.1 2.3 2.3 0 0 1 2.1-2.1H53v-13.6a2 2 0 0 1 2.1-2.1h8.1a66.4 66.4 0 0 1 64.1-50.9q.3-.3.9 0c31 .2 56.7 22 63.6 50.9h8.2a2 2 0 0 1 2.1 2.1v13.6h15.7a2.3 2.3 0 0 1 2.1 2.1 2.2 2.2 0 0 1-2.1 2.1z"/><path d="M57.2 131.9H198v11.52H57.2z"/></symbol><symbol id="mechastilts" viewBox="0 0 256 256"><path d="M95.9 158h21v13.22h-21zm42.8 0h21v13.22h-21zm-60.5 0h13.4v13.22H78.2zm49.6-87.5c-24.6 0-45.2 14.9-46.2 42h92.3c-1-27.1-21.6-42-46.1-42zM121 158h13.4v13.22H121zm42.9 0h13.4v13.22h-13.4zm-98.3-4.2h124.3v-37.1H65.6zm61.1-14.3h51.2a2.3 2.3 0 0 1 2.1 2.1 2.2 2.2 0 0 1-2.1 2.1h-51.2a2.3 2.3 0 0 1-2.1-2.1 2.3 2.3 0 0 1 2.1-2.1z"/><path d="M127.8.4L17.1 64.3v127.8L127.8 256l110.6-63.9V64.3zm66.3 155.5a2 2 0 0 1-2.1 2.1h-10.5v13.2H192a2.3 2.3 0 0 1 2.1 2.1 2.3 2.3 0 0 1-2.1 2.1H63.5a2.3 2.3 0 0 1-2.1-2.1 2.3 2.3 0 0 1 2.1-2.1H74V158H63.5a2 2 0 0 1-2.1-2.1v-41.3a2 2 0 0 1 2.1-2.1h13.9c1-29.8 23.3-46.2 50.4-46.2s49.3 16.4 50.3 46.2H192a2 2 0 0 1 2.1 2.1z"/></symbol><symbol id="spacebubbles" viewBox="0 0 256 256"><path d="M97.3 149.9H83.4l-18.5 21.9 3 4.2 35.5-18.8-6.1-7.3zm74.9-19.4a50.1 50.1 0 0 0 2.6-16 45.6 45.6 0 0 0-45.5-45.4c-25 0-45.7 20.4-45.7 45.4 0 5.5.5 11.2 2.6 16zm-100.6 4.2h115.1v10.94H71.6zm14.8 36.4H115l-8.6-10.5-20 10.5zm72.4-21.2l-6.4 7.3 35.8 18.8 3-4-18.5-22.1h-13.9z"/><path d="M128-.1l-110.9 64v128.2l110.9 64 111-64V63.9zM195.4 173l-4.9 7a2.2 2.2 0 0 1-2.7.6l-10.1-5.3H78.2l-10.1 5.3a2.5 2.5 0 0 1-2.8-.6l-4.8-7a2.3 2.3 0 0 1 .2-2.5l17.5-20.6h-8.7a2.1 2.1 0 0 1-2.1-2.1v-15.2a2.1 2.1 0 0 1 2.1-2.1h12.2a61.2 61.2 0 0 1-2.3-16 49.9 49.9 0 0 1 49.9-49.6c27.1 0 49.7 22.5 49.7 49.6a50.9 50.9 0 0 1-2.4 16h12.3a2.1 2.1 0 0 1 2.1 2.1v15.2a2.1 2.1 0 0 1-2.1 2.1h-10.8l17.3 20.6a2.3 2.3 0 0 1 0 2.5z"/><path d="M102.8 149.9l17.7 21.2h15.1l17.7-21.2h-50.5zm38.3 21.2h28.6l-20-10.5-8.6 10.5z"/></symbol><symbol id="superdomes" viewBox="0 0 256 256"><path d="M129.6 147.6h9.4v23.25h-9.4zm-60.5 0h56.3v23.25H69.1zm56.3-19.9V85.4l-30.1 42.3h30.1zm-2-46.5c-26.9 1.7-49.3 21.2-55.8 46.5H90zm6.2-.2v46.7h57.8c-6.4-25.9-29.9-45.6-57.8-46.7zm13.7 66.6H186v23.25h-42.7z"/><path d="M127.5.4L17.1 64.2v127.5l110.4 63.8L238 191.7V64.2zm90.3 147.2h-27.6V173a2.1 2.1 0 0 1-2.1 2.1H67a2 2 0 0 1-2.1-2.1v-25.4H37.3a2.2 2.2 0 0 1-2.1-2.1 2.3 2.3 0 0 1 2.1-2.1H53v-13.6a2 2 0 0 1 2.1-2.1h8.1a66.4 66.4 0 0 1 64.1-50.9q.3-.3.9 0c31 .2 56.7 22 63.6 50.9h8.2a2 2 0 0 1 2.1 2.1v13.6h15.7a2.3 2.3 0 0 1 2.1 2.1 2.2 2.2 0 0 1-2.1 2.1z"/><path d="M57.2 131.9H198v11.52H57.2z"/></symbol><symbol id="mechastilts" viewBox="0 0 256 256"><path d="M95.9 158h21v13.22h-21zm42.8 0h21v13.22h-21zm-60.5 0h13.4v13.22H78.2zm49.6-87.5c-24.6 0-45.2 14.9-46.2 42h92.3c-1-27.1-21.6-42-46.1-42zM121 158h13.4v13.22H121zm42.9 0h13.4v13.22h-13.4zm-98.3-4.2h124.3v-37.1H65.6zm61.1-14.3h51.2a2.3 2.3 0 0 1 2.1 2.1 2.2 2.2 0 0 1-2.1 2.1h-51.2a2.3 2.3 0 0 1-2.1-2.1 2.3 2.3 0 0 1 2.1-2.1z"/><path d="M127.8.4L17.1 64.3v127.8L127.8 256l110.6-63.9V64.3zm66.3 155.5a2 2 0 0 1-2.1 2.1h-10.5v13.2H192a2.3 2.3 0 0 1 2.1 2.1 2.3 2.3 0 0 1-2.1 2.1H63.5a2.3 2.3 0 0 1-2.1-2.1 2.3 2.3 0 0 1 2.1-2.1H74V158H63.5a2 2 0 0 1-2.1-2.1v-41.3a2 2 0 0 1 2.1-2.1h13.9c1-29.8 23.3-46.2 50.4-46.2s49.3 16.4 50.3 46.2H192a2 2 0 0 1 2.1 2.1z"/></symbol><symbol id="superdomes" viewBox="0 0 256 256"><path d="M129.6 147.6h9.4v23.25h-9.4zm-60.5 0h56.3v23.25H69.1zm56.3-19.9V85.4l-30.1 42.3h30.1zm-2-46.5c-26.9 1.7-49.3 21.2-55.8 46.5H90zm6.2-.2v46.7h57.8c-6.4-25.9-29.9-45.6-57.8-46.7zm13.7 66.6H186v23.25h-42.7z"/><path d="M127.5.4L17.1 64.2v127.5l110.4 63.8L238 191.7V64.2zm90.3 147.2h-27.6V173a2.1 2.1 0 0 1-2.1 2.1H67a2 2 0 0 1-2.1-2.1v-25.4H37.3a2.2 2.2 0 0 1-2.1-2.1 2.3 2.3 0 0 1 2.1-2.1H53v-13.6a2 2 0 0 1 2.1-2.1h8.1a66.4 66.4 0 0 1 64.1-50.9q.3-.3.9 0c31 .2 56.7 22 63.6 50.9h8.2a2 2 0 0 1 2.1 2.1v13.6h15.7a2.3 2.3 0 0 1 2.1 2.1 2.2 2.2 0 0 1-2.1 2.1z"/><path d="M57.2 131.9H198v11.52H57.2z"/></symbol><symbol id="mechastilts" viewBox="0 0 256 256"><path d="M95.9 158h21v13.22h-21zm42.8 0h21v13.22h-21zm-60.5 0h13.4v13.22H78.2zm49.6-87.5c-24.6 0-45.2 14.9-46.2 42h92.3c-1-27.1-21.6-42-46.1-42zM121 158h13.4v13.22H121zm42.9 0h13.4v13.22h-13.4zm-98.3-4.2h124.3v-37.1H65.6zm61.1-14.3h51.2a2.3 2.3 0 0 1 2.1 2.1 2.2 2.2 0 0 1-2.1 2.1h-51.2a2.3 2.3 0 0 1-2.1-2.1 2.3 2.3 0 0 1 2.1-2.1z"/><path d="M127.8.4L17.1 64.3v127.8L127.8 256l110.6-63.9V64.3zm66.3 155.5a2 2 0 0 1-2.1 2.1h-10.5v13.2H192a2.3 2.3 0 0 1 2.1 2.1 2.3 2.3 0 0 1-2.1 2.1H63.5a2.3 2.3 0 0 1-2.1-2.1 2.3 2.3 0 0 1 2.1-2.1H74V158H63.5a2 2 0 0 1-2.1-2.1v-41.3a2 2 0 0 1 2.1-2.1h13.9c1-29.8 23.3-46.2 50.4-46.2s49.3 16.4 50.3 46.2H192a2 2 0 0 1 2.1 2.1z"/></symbol><symbol id="superdomes" viewBox="0 0 256 256"><path d="M129.6 147.6h9.4v23.25h-9.4zm-60.5 0h56.3v23.25H69.1zm56.3-19.9V85.4l-30.1 42.3h30.1zm-2-46.5c-26.9 1.7-49.3 21.2-55.8 46.5H90zm6.2-.2v46.7h57.8c-6.4-25.9-29.9-45.6-57.8-46.7zm13.7 66.6H186v23.25h-42.7z"/><path d="M127.5.4L17.1 64.2v127.5l110.4 63.8L238 191.7V64.2zm90.3 147.2h-27.6V173a2.1 2.1 0 0 1-2.1 2.1H67a2 2 0 0 1-2.1-2.1v-25.4H37.3a2.2 2.2 0 0 1-2.1-2.1 2.3 2.3 0 0 1 2.1-2.1H53v-13.6a2 2 0 0 1 2.1-2.1h8.1a66.4 66.4 0 0 1 64.1-50.9q.3-.3.9 0c31 .2 56.7 22 63.6 50.9h8.2a2 2 0 0 1 2.1 2.1v13.6h15.7a2.3 2.3 0 0 1 2.1 2.1 2.2 2.2 0 0 1-2.1 2.1z"/><path d="M57.2 131.9H198v11.52H57.2z"/></symbol><symbol id="spacebubbles" viewBox="0 0 256 256"><path d="M97.3 149.9H83.4l-18.5 21.9 3 4.2 35.5-18.8-6.1-7.3zm74.9-19.4a50.1 50.1 0 0 0 2.6-16 45.6 45.6 0 0 0-45.5-45.4c-25 0-45.7 20.4-45.7 45.4 0 5.5.5 11.2 2.6 16zm-100.6 4.2h115.1v10.94H71.6zm14.8 36.4H115l-8.6-10.5-20 10.5zm72.4-21.2l-6.4 7.3 35.8 18.8 3-4-18.5-22.1h-13.9z"/><path d="M128-.1l-110.9 64v128.2l110.9 64 111-64V63.9zM195.4 173l-4.9 7a2.2 2.2 0 0 1-2.7.6l-10.1-5.3H78.2l-10.1 5.3a2.5 2.5 0 0 1-2.8-.6l-4.8-7a2.3 2.3 0 0 1 .2-2.5l17.5-20.6h-8.7a2.1 2.1 0 0 1-2.1-2.1v-15.2a2.1 2.1 0 0 1 2.1-2.1h12.2a61.2 61.2 0 0 1-2.3-16 49.9 49.9 0 0 1 49.9-49.6c27.1 0 49.7 22.5 49.7 49.6a50.9 50.9 0 0 1-2.4 16h12.3a2.1 2.1 0 0 1 2.1 2.1v15.2a2.1 2.1 0 0 1-2.1 2.1h-10.8l17.3 20.6a2.3 2.3 0 0 1 0 2.5z"/><path d="M102.8 149.9l17.7 21.2h15.1l17.7-21.2h-50.5zm38.3 21.2h28.6l-20-10.5-8.6 10.5z"/></symbol><symbol id="mechastilts" viewBox="0 0 256 256"><path d="M95.9 158h21v13.22h-21zm42.8 0h21v13.22h-21zm-60.5 0h13.4v13.22H78.2zm49.6-87.5c-24.6 0-45.2 14.9-46.2 42h92.3c-1-27.1-21.6-42-46.1-42zM121 158h13.4v13.22H121zm42.9 0h13.4v13.22h-13.4zm-98.3-4.2h124.3v-37.1H65.6zm61.1-14.3h51.2a2.3 2.3 0 0 1 2.1 2.1 2.2 2.2 0 0 1-2.1 2.1h-51.2a2.3 2.3 0 0 1-2.1-2.1 2.3 2.3 0 0 1 2.1-2.1z"/><path d="M127.8.4L17.1 64.3v127.8L127.8 256l110.6-63.9V64.3zm66.3 155.5a2 2 0 0 1-2.1 2.1h-10.5v13.2H192a2.3 2.3 0 0 1 2.1 2.1 2.3 2.3 0 0 1-2.1 2.1H63.5a2.3 2.3 0 0 1-2.1-2.1 2.3 2.3 0 0 1 2.1-2.1H74V158H63.5a2 2 0 0 1-2.1-2.1v-41.3a2 2 0 0 1 2.1-2.1h13.9c1-29.8 23.3-46.2 50.4-46.2s49.3 16.4 50.3 46.2H192a2 2 0 0 1 2.1 2.1z"/></symbol><symbol id="superdomes" viewBox="0 0 256 256"><path d="M129.6 147.6h9.4v23.25h-9.4zm-60.5 0h56.3v23.25H69.1zm56.3-19.9V85.4l-30.1 42.3h30.1zm-2-46.5c-26.9 1.7-49.3 21.2-55.8 46.5H90zm6.2-.2v46.7h57.8c-6.4-25.9-29.9-45.6-57.8-46.7zm13.7 66.6H186v23.25h-42.7z"/><path d="M127.5.4L17.1 64.2v127.5l110.4 63.8L238 191.7V64.2zm90.3 147.2h-27.6V173a2.1 2.1 0 0 1-2.1 2.1H67a2 2 0 0 1-2.1-2.1v-25.4H37.3a2.2 2.2 0 0 1-2.1-2.1 2.3 2.3 0 0 1 2.1-2.1H53v-13.6a2 2 0 0 1 2.1-2.1h8.1a66.4 66.4 0 0 1 64.1-50.9q.3-.3.9 0c31 .2 56.7 22 63.6 50.9h8.2a2 2 0 0 1 2.1 2.1v13.6h15.7a2.3 2.3 0 0 1 2.1 2.1 2.2 2.2 0 0 1-2.1 2.1z"/><path d="M57.2 131.9H198v11.52H57.2z"/></symbol><symbol id="superdomes" viewBox="0 0 256 256"><path d="M129.6 147.6h9.4v23.25h-9.4zm-60.5 0h56.3v23.25H69.1zm56.3-19.9V85.4l-30.1 42.3h30.1zm-2-46.5c-26.9 1.7-49.3 21.2-55.8 46.5H90zm6.2-.2v46.7h57.8c-6.4-25.9-29.9-45.6-57.8-46.7zm13.7 66.6H186v23.25h-42.7z"/><path d="M127.5.4L17.1 64.2v127.5l110.4 63.8L238 191.7V64.2zm90.3 147.2h-27.6V173a2.1 2.1 0 0 1-2.1 2.1H67a2 2 0 0 1-2.1-2.1v-25.4H37.3a2.2 2.2 0 0 1-2.1-2.1 2.3 2.3 0 0 1 2.1-2.1H53v-13.6a2 2 0 0 1 2.1-2.1h8.1a66.4 66.4 0 0 1 64.1-50.9q.3-.3.9 0c31 .2 56.7 22 63.6 50.9h8.2a2 2 0 0 1 2.1 2.1v13.6h15.7a2.3 2.3 0 0 1 2.1 2.1 2.2 2.2 0 0 1-2.1 2.1z"/><path d="M57.2 131.9H198v11.52H57.2z"/></symbol><symbol id="mechastilts" viewBox="0 0 256 256"><path d="M95.9 158h21v13.22h-21zm42.8 0h21v13.22h-21zm-60.5 0h13.4v13.22H78.2zm49.6-87.5c-24.6 0-45.2 14.9-46.2 42h92.3c-1-27.1-21.6-42-46.1-42zM121 158h13.4v13.22H121zm42.9 0h13.4v13.22h-13.4zm-98.3-4.2h124.3v-37.1H65.6zm61.1-14.3h51.2a2.3 2.3 0 0 1 2.1 2.1 2.2 2.2 0 0 1-2.1 2.1h-51.2a2.3 2.3 0 0 1-2.1-2.1 2.3 2.3 0 0 1 2.1-2.1z"/><path d="M127.8.4L17.1 64.3v127.8L127.8 256l110.6-63.9V64.3zm66.3 155.5a2 2 0 0 1-2.1 2.1h-10.5v13.2H192a2.3 2.3 0 0 1 2.1 2.1 2.3 2.3 0 0 1-2.1 2.1H63.5a2.3 2.3 0 0 1-2.1-2.1 2.3 2.3 0 0 1 2.1-2.1H74V158H63.5a2 2 0 0 1-2.1-2.1v-41.3a2 2 0 0 1 2.1-2.1h13.9c1-29.8 23.3-46.2 50.4-46.2s49.3 16.4 50.3 46.2H192a2 2 0 0 1 2.1 2.1z"/></symbol><symbol id="superdomes" viewBox="0 0 256 256"><path d="M129.6 147.6h9.4v23.25h-9.4zm-60.5 0h56.3v23.25H69.1zm56.3-19.9V85.4l-30.1 42.3h30.1zm-2-46.5c-26.9 1.7-49.3 21.2-55.8 46.5H90zm6.2-.2v46.7h57.8c-6.4-25.9-29.9-45.6-57.8-46.7zm13.7 66.6H186v23.25h-42.7z"/><path d="M127.5.4L17.1 64.2v127.5l110.4 63.8L238 191.7V64.2zm90.3 147.2h-27.6V173a2.1 2.1 0 0 1-2.1 2.1H67a2 2 0 0 1-2.1-2.1v-25.4H37.3a2.2 2.2 0 0 1-2.1-2.1 2.3 2.3 0 0 1 2.1-2.1H53v-13.6a2 2 0 0 1 2.1-2.1h8.1a66.4 66.4 0 0 1 64.1-50.9q.3-.3.9 0c31 .2 56.7 22 63.6 50.9h8.2a2 2 0 0 1 2.1 2.1v13.6h15.7a2.3 2.3 0 0 1 2.1 2.1 2.2 2.2 0 0 1-2.1 2.1z"/><path d="M57.2 131.9H198v11.52H57.2z"/></symbol><symbol id="superdomes" viewBox="0 0 256 256"><path d="M129.6 147.6h9.4v23.25h-9.4zm-60.5 0h56.3v23.25H69.1zm56.3-19.9V85.4l-30.1 42.3h30.1zm-2-46.5c-26.9 1.7-49.3 21.2-55.8 46.5H90zm6.2-.2v46.7h57.8c-6.4-25.9-29.9-45.6-57.8-46.7zm13.7 66.6H186v23.25h-42.7z"/><path d="M127.5.4L17.1 64.2v127.5l110.4 63.8L238 191.7V64.2zm90.3 147.2h-27.6V173a2.1 2.1 0 0 1-2.1 2.1H67a2 2 0 0 1-2.1-2.1v-25.4H37.3a2.2 2.2 0 0 1-2.1-2.1 2.3 2.3 0 0 1 2.1-2.1H53v-13.6a2 2 0 0 1 2.1-2.1h8.1a66.4 66.4 0 0 1 64.1-50.9q.3-.3.9 0c31 .2 56.7 22 63.6 50.9h8.2a2 2 0 0 1 2.1 2.1v13.6h15.7a2.3 2.3 0 0 1 2.1 2.1 2.2 2.2 0 0 1-2.1 2.1z"/><path d="M57.2 131.9H198v11.52H57.2z"/></symbol><symbol id="spacebubbles" viewBox="0 0 256 256"><path d="M97.3 149.9H83.4l-18.5 21.9 3 4.2 35.5-18.8-6.1-7.3zm74.9-19.4a50.1 50.1 0 0 0 2.6-16 45.6 45.6 0 0 0-45.5-45.4c-25 0-45.7 20.4-45.7 45.4 0 5.5.5 11.2 2.6 16zm-100.6 4.2h115.1v10.94H71.6zm14.8 36.4H115l-8.6-10.5-20 10.5zm72.4-21.2l-6.4 7.3 35.8 18.8 3-4-18.5-22.1h-13.9z"/><path d="M128-.1l-110.9 64v128.2l110.9 64 111-64V63.9zM195.4 173l-4.9 7a2.2 2.2 0 0 1-2.7.6l-10.1-5.3H78.2l-10.1 5.3a2.5 2.5 0 0 1-2.8-.6l-4.8-7a2.3 2.3 0 0 1 .2-2.5l17.5-20.6h-8.7a2.1 2.1 0 0 1-2.1-2.1v-15.2a2.1 2.1 0 0 1 2.1-2.1h12.2a61.2 61.2 0 0 1-2.3-16 49.9 49.9 0 0 1 49.9-49.6c27.1 0 49.7 22.5 49.7 49.6a50.9 50.9 0 0 1-2.4 16h12.3a2.1 2.1 0 0 1 2.1 2.1v15.2a2.1 2.1 0 0 1-2.1 2.1h-10.8l17.3 20.6a2.3 2.3 0 0 1 0 2.5z"/><path d="M102.8 149.9l17.7 21.2h15.1l17.7-21.2h-50.5zm38.3 21.2h28.6l-20-10.5-8.6 10.5z"/></symbol><symbol id="mechastilts" viewBox="0 0 256 256"><path d="M95.9 158h21v13.22h-21zm42.8 0h21v13.22h-21zm-60.5 0h13.4v13.22H78.2zm49.6-87.5c-24.6 0-45.2 14.9-46.2 42h92.3c-1-27.1-21.6-42-46.1-42zM121 158h13.4v13.22H121zm42.9 0h13.4v13.22h-13.4zm-98.3-4.2h124.3v-37.1H65.6zm61.1-14.3h51.2a2.3 2.3 0 0 1 2.1 2.1 2.2 2.2 0 0 1-2.1 2.1h-51.2a2.3 2.3 0 0 1-2.1-2.1 2.3 2.3 0 0 1 2.1-2.1z"/><path d="M127.8.4L17.1 64.3v127.8L127.8 256l110.6-63.9V64.3zm66.3 155.5a2 2 0 0 1-2.1 2.1h-10.5v13.2H192a2.3 2.3 0 0 1 2.1 2.1 2.3 2.3 0 0 1-2.1 2.1H63.5a2.3 2.3 0 0 1-2.1-2.1 2.3 2.3 0 0 1 2.1-2.1H74V158H63.5a2 2 0 0 1-2.1-2.1v-41.3a2 2 0 0 1 2.1-2.1h13.9c1-29.8 23.3-46.2 50.4-46.2s49.3 16.4 50.3 46.2H192a2 2 0 0 1 2.1 2.1z"/></symbol></svg>